<?xml version="1.0" encoding="UTF-8" standalone="no"?><!-- Generator: Gravit.io --><svg xmlns="http://www.w3.org/2000/svg" xmlns:xlink="http://www.w3.org/1999/xlink" style="isolation:isolate" viewBox="871.294 659.966 50 45.11" width="50pt" height="45.11pt"><defs><clipPath id="_clipPath_lUcu6a1hyLJ4wzdhlPAWkrpWYRRkSbsi"><rect x="871.294" y="659.966" width="50" height="45.11"/></clipPath></defs><g clip-path="url(#_clipPath_lUcu6a1hyLJ4wzdhlPAWkrpWYRRkSbsi)"><g><g><path d=" M 900.965 662.494 L 910.816 679.698 L 920.634 696.844 L 920.663 696.902 C 921.144 697.899 921.332 698.893 921.287 699.827 C 921.238 700.881 920.894 701.851 920.347 702.661 C 919.798 703.472 919.043 704.126 918.169 704.548 C 917.409 704.915 916.559 705.107 915.676 705.072 L 915.676 705.074 L 896.276 705.074 L 876.779 705.074 L 876.746 705.07 C 875.862 705.039 875.038 704.819 874.313 704.452 C 873.377 703.977 872.603 703.256 872.072 702.374 C 871.543 701.494 871.258 700.456 871.297 699.344 C 871.328 698.489 871.55 697.596 872.001 696.706 L 872.022 696.663 L 881.736 679.698 L 891.647 662.389 L 891.749 662.248 C 892.173 661.753 892.633 661.341 893.116 661.01 C 894.217 660.254 895.435 659.919 896.615 659.971 C 897.806 660.023 898.949 660.47 899.89 661.276 C 900.273 661.604 900.622 661.991 900.925 662.433 L 900.965 662.494 L 900.965 662.494 Z  M 898.592 663.94 C 898.456 663.732 898.271 663.547 898.083 663.386 C 897.632 663 897.087 662.773 896.493 662.746 C 895.842 662.718 895.221 662.935 894.688 663.301 C 894.485 663.44 894.151 663.666 894.006 663.869 L 893.988 663.894 L 874.473 697.974 C 874.248 698.432 874.092 698.931 874.074 699.443 C 874.055 699.97 874.18 700.489 874.453 700.942 C 874.719 701.385 875.108 701.74 875.569 701.974 C 875.942 702.163 876.5 702.245 876.936 702.295 L 915.784 702.296 C 916.192 702.312 916.594 702.224 916.961 702.046 C 917.397 701.836 917.774 701.506 918.045 701.105 C 918.329 700.685 918.489 700.202 918.513 699.696 C 918.538 699.155 918.424 698.64 918.184 698.156 L 898.592 663.94 L 898.592 663.94 Z " fill-rule="evenodd" fill="rgb(255,255,255)"/></g><path d=" M 896.294 690.947 C 896.748 690.947 897.177 691.03 897.579 691.196 C 897.978 691.362 898.339 691.606 898.661 691.931 C 898.987 692.256 899.232 692.619 899.398 693.017 C 899.565 693.419 899.649 693.849 899.649 694.308 C 899.649 694.764 899.565 695.191 899.398 695.591 C 899.232 695.987 898.986 696.349 898.661 696.674 C 898.339 696.998 897.978 697.243 897.579 697.408 C 897.177 697.574 896.749 697.657 896.294 697.657 C 895.84 697.657 895.412 697.575 895.01 697.409 C 894.61 697.244 894.248 697.001 893.924 696.677 L 893.921 696.674 C 893.597 696.348 893.353 695.986 893.188 695.589 C 893.022 695.19 892.939 694.763 892.939 694.308 C 892.939 693.857 893.022 693.429 893.187 693.026 C 893.351 692.63 893.592 692.268 893.912 691.945 L 893.912 691.945 C 894.236 691.615 894.597 691.366 894.998 691.199 C 895.399 691.031 895.831 690.947 896.294 690.947 L 896.294 690.947 Z " fill="rgb(255,255,255)"/><path d=" M 896.644 690.014 L 895.959 690.014 L 895.258 690.014 L 895.216 689.313 C 895.18 688.699 895.104 688.028 894.989 687.299 L 894.988 687.299 C 894.871 686.556 894.712 685.744 894.511 684.861 L 893.692 681.256 C 893.447 680.165 893.26 679.221 893.134 678.421 C 893.004 677.597 892.939 676.936 892.939 676.438 C 892.939 675.935 893.013 675.471 893.162 675.046 C 893.315 674.609 893.546 674.222 893.854 673.886 L 893.857 673.883 C 894.173 673.542 894.537 673.288 894.949 673.119 C 895.359 672.95 895.805 672.867 896.285 672.867 C 896.76 672.867 897.199 672.951 897.604 673.121 C 898.013 673.292 898.377 673.547 898.698 673.885 L 898.698 673.885 C 899.015 674.218 899.253 674.598 899.413 675.026 C 899.57 675.448 899.648 675.904 899.648 676.392 C 899.648 676.845 899.579 677.487 899.441 678.316 C 899.309 679.105 899.111 680.085 898.847 681.256 L 898.847 681.259 L 898.017 684.864 C 897.874 685.486 897.751 686.165 897.647 686.903 C 897.542 687.639 897.456 688.447 897.387 689.327 L 897.333 690.014 L 896.644 690.014 L 896.644 690.014 Z " fill="rgb(255,255,255)"/></g></g></svg>