<?xml version="1.0" encoding="UTF-8" standalone="no"?><!-- Generator: Gravit.io --><svg xmlns="http://www.w3.org/2000/svg" xmlns:xlink="http://www.w3.org/1999/xlink" style="isolation:isolate" viewBox="1929.769 1557.431 50 40.795" width="50pt" height="40.795pt"><defs><clipPath id="_clipPath_qnknnPCXcrXMCC4yXp9TZZTie2gCxHLw"><rect x="1929.769" y="1557.431" width="50" height="40.795"/></clipPath></defs><g clip-path="url(#_clipPath_qnknnPCXcrXMCC4yXp9TZZTie2gCxHLw)"><g><path d=" M 1975.689 1557.431 L 1933.848 1557.431 C 1931.596 1557.434 1929.771 1559.259 1929.769 1561.511 L 1929.769 1593.728 C 1929.772 1596.211 1931.784 1598.223 1934.267 1598.226 L 1975.271 1598.226 C 1977.754 1598.223 1979.766 1596.211 1979.769 1593.728 L 1979.769 1561.511 C 1979.766 1559.259 1977.941 1557.434 1975.689 1557.431 L 1975.689 1557.431 Z  M 1978.304 1561.511 L 1978.304 1566.399 L 1950.119 1566.399 L 1953.668 1558.896 L 1975.689 1558.896 C 1977.133 1558.897 1978.303 1560.067 1978.304 1561.511 Z  M 1933.848 1558.896 L 1952.049 1558.896 L 1948.499 1566.399 L 1931.233 1566.399 L 1931.233 1561.511 C 1931.235 1560.067 1932.405 1558.897 1933.848 1558.896 L 1933.848 1558.896 Z  M 1975.271 1596.762 L 1934.267 1596.762 C 1932.592 1596.76 1931.235 1595.403 1931.233 1593.728 L 1931.233 1567.863 L 1978.304 1567.863 L 1978.304 1593.728 C 1978.302 1595.403 1976.945 1596.76 1975.271 1596.762 L 1975.271 1596.762 Z " fill="rgb(255,255,255)"/><path d=" M 1937.016 1565.053 C 1938.344 1565.053 1939.421 1563.976 1939.421 1562.647 C 1939.421 1561.318 1938.344 1560.241 1937.016 1560.241 C 1935.687 1560.241 1934.61 1561.318 1934.61 1562.647 C 1934.611 1563.975 1935.687 1565.052 1937.016 1565.053 L 1937.016 1565.053 Z  M 1937.016 1561.706 C 1937.536 1561.706 1937.957 1562.127 1937.957 1562.647 C 1937.957 1563.167 1937.536 1563.589 1937.016 1563.589 C 1936.496 1563.589 1936.074 1563.167 1936.074 1562.647 C 1936.075 1562.128 1936.496 1561.706 1937.016 1561.706 L 1937.016 1561.706 Z " fill="rgb(255,255,255)"/><path d=" M 1943.734 1565.053 C 1945.062 1565.053 1946.139 1563.976 1946.139 1562.647 C 1946.139 1561.318 1945.062 1560.241 1943.734 1560.241 C 1942.405 1560.241 1941.328 1561.318 1941.328 1562.647 C 1941.329 1563.975 1942.405 1565.052 1943.734 1565.053 L 1943.734 1565.053 Z  M 1943.734 1561.706 C 1944.254 1561.706 1944.675 1562.127 1944.675 1562.647 C 1944.675 1563.167 1944.254 1563.589 1943.734 1563.589 C 1943.214 1563.589 1942.792 1563.167 1942.792 1562.647 C 1942.793 1562.128 1943.214 1561.706 1943.734 1561.706 L 1943.734 1561.706 Z " fill="rgb(255,255,255)"/><path d=" M 1956.242 1563.379 L 1974.964 1563.379 C 1975.369 1563.379 1975.696 1563.052 1975.696 1562.647 C 1975.696 1562.243 1975.369 1561.915 1974.964 1561.915 L 1956.242 1561.915 C 1955.838 1561.915 1955.51 1562.243 1955.51 1562.647 C 1955.51 1563.052 1955.838 1563.379 1956.242 1563.379 Z " fill="rgb(255,255,255)"/><path d=" M 1974.225 1571.538 L 1935.313 1571.538 C 1934.908 1571.539 1934.581 1571.866 1934.58 1572.271 L 1934.58 1587.752 C 1934.58 1588.156 1934.908 1588.484 1935.313 1588.484 L 1974.225 1588.484 C 1974.629 1588.484 1974.957 1588.156 1974.957 1587.752 L 1974.957 1572.271 C 1974.957 1571.866 1974.629 1571.539 1974.225 1571.538 L 1974.225 1571.538 Z  M 1973.493 1587.02 L 1936.045 1587.02 L 1936.045 1573.003 L 1973.493 1573.003 L 1973.493 1587.02 Z " fill="rgb(255,255,255)"/><path d=" M 1972.435 1591.622 L 1937.103 1591.622 C 1936.698 1591.622 1936.37 1591.95 1936.37 1592.354 C 1936.37 1592.759 1936.698 1593.086 1937.103 1593.086 L 1972.435 1593.086 C 1972.839 1593.086 1973.167 1592.759 1973.167 1592.354 C 1973.167 1591.95 1972.839 1591.622 1972.435 1591.622 L 1972.435 1591.622 Z " fill="rgb(255,255,255)"/><path d=" M 1950.212 1585.244 C 1950.435 1585.376 1950.71 1585.38 1950.937 1585.256 L 1959.306 1580.653 C 1959.54 1580.524 1959.685 1580.278 1959.685 1580.011 C 1959.685 1579.744 1959.54 1579.498 1959.306 1579.37 L 1950.937 1574.767 C 1950.711 1574.643 1950.435 1574.647 1950.212 1574.779 C 1949.989 1574.91 1949.853 1575.15 1949.852 1575.409 L 1949.852 1584.614 C 1949.852 1584.873 1949.989 1585.112 1950.212 1585.244 L 1950.212 1585.244 Z  M 1951.317 1576.647 L 1957.434 1580.011 L 1951.317 1583.375 L 1951.317 1576.647 Z " fill="rgb(255,255,255)"/></g></g></svg>