<?xml version="1.0" encoding="UTF-8" standalone="no"?><!-- Generator: Gravit.io --><svg xmlns="http://www.w3.org/2000/svg" xmlns:xlink="http://www.w3.org/1999/xlink" style="isolation:isolate" viewBox="608.533 646.467 50 50.134" width="50pt" height="50.134pt"><defs><clipPath id="_clipPath_ahq4VRZwSnAWzGhzUiMCx7sCPal482Do"><rect x="608.533" y="646.467" width="50" height="50.134"/></clipPath></defs><g clip-path="url(#_clipPath_ahq4VRZwSnAWzGhzUiMCx7sCPal482Do)"><g><g><g><path d=" M 635.983 661.474 L 634.409 661.474 L 634.409 659.917 C 634.409 656.663 637.075 654.015 640.353 654.015 L 640.353 655.59 C 637.944 655.59 635.983 657.531 635.983 659.917 L 635.983 661.474 Z " fill="rgb(255,255,255)"/></g></g><g><path d=" M 632.613 667.777 L 631.038 667.777 L 631.038 652.043 C 631.038 649.836 629.225 648.042 626.996 648.042 L 626.996 646.467 C 630.093 646.467 632.612 648.968 632.612 652.043 L 632.612 667.777 L 632.613 667.777 Z " fill="rgb(255,255,255)"/></g><g><path d=" M 633.515 671.468 C 632.149 671.468 631.038 670.363 631.038 669.005 L 631.038 664.573 L 632.613 664.573 L 632.613 669.005 C 632.613 669.494 633.017 669.893 633.515 669.893 C 634.01 669.893 634.415 669.494 634.415 669.005 L 634.415 661.212 L 635.99 661.212 L 635.99 669.005 C 635.989 670.363 634.879 671.468 633.515 671.468 Z " fill="rgb(255,255,255)"/></g><g><g><path d=" M 623.052 657.152 L 621.477 657.152 L 621.477 652.043 C 621.477 648.968 623.999 646.467 627.098 646.467 L 627.098 648.042 C 624.867 648.042 623.052 649.836 623.052 652.043 L 623.052 657.152 Z " fill="rgb(255,255,255)"/></g></g><g><path d=" M 646.187 665.269 L 644.612 665.269 L 644.612 659.918 C 644.612 657.531 642.652 655.591 640.244 655.591 L 640.244 654.016 C 643.521 654.016 646.187 656.663 646.187 659.918 L 646.187 665.269 Z " fill="rgb(255,255,255)"/></g><g><path d=" M 622.022 692.936 C 616.99 692.936 612.705 689.044 612.266 684.074 L 612.191 683.217 L 631.856 683.217 L 631.78 684.074 C 631.34 689.043 627.054 692.936 622.022 692.936 Z  M 613.958 684.792 C 614.707 688.538 618.093 691.361 622.022 691.361 C 625.951 691.361 629.339 688.538 630.088 684.792 L 613.958 684.792 Z " fill="rgb(255,255,255)"/></g><g><path d=" M 653.779 696.601 L 637.135 696.601 C 636.357 696.601 635.706 696.272 635.35 695.698 C 634.957 695.062 634.972 694.216 635.392 693.374 L 641.755 680.577 L 641.755 672.745 L 641.164 672.745 L 641.164 666.767 L 649.749 666.767 L 649.749 672.745 L 649.16 672.745 L 649.16 680.578 L 655.523 693.375 C 655.942 694.216 655.958 695.062 655.564 695.698 C 655.209 696.271 654.559 696.601 653.779 696.601 Z  M 642.74 671.17 L 643.33 671.17 L 643.33 680.947 L 636.802 694.076 C 636.603 694.474 636.617 694.752 636.69 694.869 C 636.778 695.01 637.031 695.026 637.136 695.026 L 653.779 695.026 C 653.884 695.026 654.138 695.01 654.226 694.868 C 654.298 694.751 654.312 694.474 654.114 694.076 L 647.586 680.948 L 647.586 671.17 L 648.175 671.17 L 648.175 668.342 L 642.74 668.342 L 642.74 671.17 Z " fill="rgb(255,255,255)"/></g><g><path d=" M 651.185 692.936 L 639.729 692.936 L 642.789 686.785 L 648.127 686.785 L 651.185 692.936 Z  M 642.272 691.361 L 648.643 691.361 L 647.151 688.36 L 643.765 688.36 L 642.272 691.361 Z " fill="rgb(255,255,255)"/></g><g><g><path d=" M 622.022 696.601 C 614.584 696.601 608.533 690.598 608.533 683.22 C 608.533 677.146 612.559 671.932 618.399 670.33 L 618.399 665.286 L 617.573 665.286 L 617.573 659.278 L 626.472 659.278 L 626.472 665.286 L 625.646 665.286 L 625.646 670.329 C 631.487 671.932 635.512 677.146 635.512 683.219 C 635.512 690.598 629.46 696.601 622.022 696.601 Z  M 619.147 663.711 L 619.974 663.711 L 619.974 671.573 L 619.36 671.712 C 613.913 672.944 610.108 677.676 610.108 683.22 C 610.108 689.73 615.453 695.026 622.022 695.026 C 628.592 695.026 633.937 689.73 633.937 683.22 C 633.937 677.676 630.133 672.945 624.685 671.712 L 624.071 671.574 L 624.071 663.711 L 624.897 663.711 L 624.897 660.853 L 619.147 660.853 L 619.147 663.711 Z " fill="rgb(255,255,255)"/></g></g><g><path d=" M 612.671 655.98 C 610.975 655.98 609.596 654.61 609.596 652.925 C 609.596 651.24 610.975 649.87 612.671 649.87 C 614.367 649.87 615.746 651.24 615.746 652.925 C 615.746 654.61 614.366 655.98 612.671 655.98 Z  M 612.671 651.445 C 611.844 651.445 611.171 652.108 611.171 652.924 C 611.171 653.741 611.843 654.405 612.671 654.405 C 613.498 654.405 614.171 653.741 614.171 652.924 C 614.171 652.108 613.498 651.445 612.671 651.445 Z " fill="rgb(255,255,255)"/></g><g><g><g><rect x="652.531" y="648.488" width="1.575" height="1.995" transform="matrix(1,0,0,1,0,0)" fill="rgb(255,255,255)"/></g></g><g><g><rect x="648.275" y="650.908" width="2.008" height="1.575" transform="matrix(0.868,0.497,-0.497,0.868,409.661,-236.479)" fill="rgb(255,255,255)"/></g></g><g><g><rect x="648.403" y="655.268" width="1.575" height="2.007" transform="matrix(0.496,0.868,-0.868,0.496,896.64,-233.059)" fill="rgb(255,255,255)"/></g></g><g><g><rect x="652.355" y="657.637" width="1.575" height="1.994" transform="matrix(1,0,0,1,0,0)" fill="rgb(255,255,255)"/></g></g><g><g><rect x="656.179" y="655.636" width="2.007" height="1.575" transform="matrix(0.868,0.497,-0.497,0.868,413.132,-239.802)" fill="rgb(255,255,255)"/></g></g><g><g><rect x="656.483" y="650.843" width="1.575" height="2.008" transform="matrix(0.497,0.868,-0.868,0.497,896.347,-242.442)" fill="rgb(255,255,255)"/></g></g></g></g></g></svg>