<?xml version="1.0" encoding="UTF-8" standalone="no"?><!-- Generator: Gravit.io --><svg xmlns="http://www.w3.org/2000/svg" xmlns:xlink="http://www.w3.org/1999/xlink" style="isolation:isolate" viewBox="2006.325 1583.1 50 50.001" width="50pt" height="50.001pt"><defs><clipPath id="_clipPath_3WhcmrMPlwRMJe0HdDw48OZoaxZFyALj"><rect x="2006.325" y="1583.1" width="50" height="50.001"/></clipPath></defs><g clip-path="url(#_clipPath_3WhcmrMPlwRMJe0HdDw48OZoaxZFyALj)"><g><path d=" M 2018.825 1583.101 C 2011.92 1583.101 2006.325 1588.696 2006.325 1595.601 C 2006.325 1602.506 2011.92 1608.101 2018.825 1608.101 C 2025.73 1608.101 2031.325 1602.506 2031.325 1595.601 C 2031.325 1588.696 2025.73 1583.101 2018.825 1583.101 Z  M 2010.492 1595.601 C 2010.492 1591.722 2013.153 1588.493 2016.74 1587.562 L 2016.74 1603.639 C 2013.152 1602.708 2010.492 1599.478 2010.492 1595.601 Z  M 2020.906 1603.639 L 2020.906 1587.561 C 2024.495 1588.49 2027.158 1591.722 2027.158 1595.601 C 2027.158 1599.479 2024.495 1602.711 2020.906 1603.639 Z " fill="rgb(255,255,255)"/><path d=" M 2054.494 1593.265 C 2052.052 1590.824 2048.093 1590.824 2045.652 1593.265 L 2035.239 1603.682 C 2032.798 1606.123 2032.798 1610.078 2035.239 1612.519 C 2037.681 1614.961 2041.636 1614.961 2044.077 1612.519 L 2054.494 1602.102 C 2056.935 1599.661 2056.935 1595.706 2054.494 1593.265 Z  M 2041.131 1609.573 C 2040.317 1610.387 2038.995 1610.385 2038.185 1609.573 C 2037.371 1608.759 2037.371 1607.439 2038.185 1606.627 L 2041.921 1602.891 L 2044.867 1605.837 L 2041.131 1609.573 Z  M 2051.547 1599.156 L 2047.812 1602.892 L 2044.866 1599.946 L 2048.602 1596.211 C 2049.411 1595.397 2050.734 1595.399 2051.547 1596.211 L 2051.547 1596.214 C 2052.362 1597.024 2052.357 1598.345 2051.547 1599.156 Z " fill="rgb(255,255,255)"/><path d=" M 2032.936 1616.907 C 2028.148 1612.121 2021.681 1610.831 2018.492 1614.019 C 2015.302 1617.209 2016.593 1623.674 2021.382 1628.464 C 2026.166 1633.249 2032.636 1634.54 2035.826 1631.352 C 2039.014 1628.162 2037.721 1621.692 2032.936 1616.907 Z  M 2032.877 1628.404 C 2031.75 1629.532 2027.766 1628.955 2024.327 1625.517 C 2020.888 1622.079 2020.311 1618.094 2021.437 1616.966 C 2022.564 1615.839 2026.551 1616.415 2029.99 1619.853 C 2033.429 1623.292 2034.004 1627.28 2032.877 1628.404 Z " fill="rgb(255,255,255)"/><path d=" M 2047.992 1616.434 C 2044.541 1616.434 2041.742 1619.229 2041.742 1622.684 C 2041.742 1626.134 2044.541 1628.934 2047.992 1628.934 C 2051.442 1628.934 2054.242 1626.134 2054.242 1622.684 C 2054.242 1619.229 2051.442 1616.434 2047.992 1616.434 Z  M 2047.992 1624.767 C 2046.842 1624.767 2045.908 1623.833 2045.908 1622.684 C 2045.908 1621.532 2046.842 1620.6 2047.992 1620.6 C 2049.141 1620.6 2050.075 1621.532 2050.075 1622.684 C 2050.075 1623.833 2049.141 1624.767 2047.992 1624.767 Z " fill="rgb(255,255,255)"/><path d=" M 2041.742 1589.871 C 2041.742 1591.886 2040.11 1593.517 2038.096 1593.517 C 2036.084 1593.517 2034.45 1591.886 2034.45 1589.871 C 2034.45 1587.857 2036.084 1586.226 2038.096 1586.226 C 2040.11 1586.226 2041.742 1587.857 2041.742 1589.871 Z " fill="rgb(255,255,255)"/><circle vector-effect="non-scaling-stroke" cx="2009.9706136074576" cy="1615.9123974612576" r="3.645613607457335" fill="rgb(255,255,255)"/><path d=" M 2050.075 1585.704 C 2050.075 1587.145 2048.911 1588.309 2047.47 1588.309 C 2046.034 1588.309 2044.867 1587.145 2044.867 1585.704 C 2044.867 1584.264 2046.034 1583.1 2047.47 1583.1 C 2048.911 1583.101 2050.075 1584.264 2050.075 1585.704 Z " fill="rgb(255,255,255)"/><path d=" M 2015.7 1627.371 C 2015.7 1628.812 2014.536 1629.975 2013.096 1629.975 C 2011.659 1629.975 2010.491 1628.812 2010.491 1627.371 C 2010.491 1625.93 2011.659 1624.767 2013.096 1624.767 C 2014.536 1624.767 2015.7 1625.93 2015.7 1627.371 Z " fill="rgb(255,255,255)"/></g></g></svg>