<?xml version="1.0" encoding="UTF-8" standalone="no"?><!-- Generator: Gravit.io --><svg xmlns="http://www.w3.org/2000/svg" xmlns:xlink="http://www.w3.org/1999/xlink" style="isolation:isolate" viewBox="1432.8 1040.287 50 55.206" width="50pt" height="55.206pt"><defs><clipPath id="_clipPath_h6HzCb3I9ieHKlU6PiljaqpYDlR4bz5Y"><rect x="1432.8" y="1040.287" width="50" height="55.206"/></clipPath></defs><g clip-path="url(#_clipPath_h6HzCb3I9ieHKlU6PiljaqpYDlR4bz5Y)"><path d=" M 1448.363 1095.144 C 1447.351 1094.527 1447.099 1092.73 1447.684 1090.307 C 1447.846 1089.635 1448.45 1087.588 1449.027 1085.756 C 1449.603 1083.925 1450.222 1081.954 1450.403 1081.376 C 1451.037 1079.348 1451.477 1077.152 1451.422 1076.289 C 1451.374 1075.527 1451.316 1075.41 1450.955 1075.359 C 1450.541 1075.301 1449.337 1075.635 1448.038 1076.169 C 1447.652 1076.327 1445.205 1077.529 1442.598 1078.839 C 1437.343 1081.48 1435.773 1082.084 1434.522 1081.943 C 1433.296 1081.805 1432.79 1081.213 1432.8 1079.925 C 1432.817 1077.734 1434.479 1075.962 1441.554 1070.596 C 1447.555 1066.044 1450.754 1063.275 1450.754 1062.632 C 1450.754 1062.263 1450.37 1062.292 1448.644 1062.79 C 1444.789 1063.902 1444.43 1063.971 1443.557 1063.762 C 1440.978 1063.143 1440.82 1059.746 1443.252 1057.175 C 1444.133 1056.243 1444.17 1056.164 1444.24 1055.063 C 1444.311 1053.965 1444.291 1053.899 1443.766 1053.42 C 1443.333 1053.024 1443.219 1052.778 1443.219 1052.238 C 1443.219 1051.625 1443.339 1051.44 1444.402 1050.416 C 1445.694 1049.171 1445.996 1048.974 1446.866 1048.809 C 1447.659 1048.659 1448.413 1049.008 1449.586 1050.07 C 1451.045 1051.392 1451.736 1051.677 1452.793 1051.393 C 1453.183 1051.288 1453.429 1050.818 1454.11 1048.879 C 1454.979 1046.4 1457.17 1045.271 1459.265 1046.222 C 1460.753 1046.898 1461.418 1048.236 1462.136 1051.997 C 1462.568 1054.259 1462.939 1055.071 1463.574 1055.144 C 1464.369 1055.236 1465.181 1053.822 1467.766 1047.844 C 1469.365 1044.146 1470.067 1042.824 1471.038 1041.684 C 1472.143 1040.387 1474.047 1039.903 1475.223 1040.62 C 1476.582 1041.448 1476.649 1043.579 1475.467 1048.344 C 1474.697 1051.448 1474.41 1053.821 1474.731 1054.422 C 1475.126 1055.159 1475.957 1055.36 1478.472 1055.327 C 1481.077 1055.293 1481.612 1055.444 1482.3 1056.41 C 1482.835 1057.162 1482.965 1058.783 1482.572 1059.813 C 1482.041 1061.202 1480.929 1061.943 1477.801 1062.989 C 1475.629 1063.716 1475.15 1063.939 1474.703 1064.433 C 1473.954 1065.26 1474.651 1066.018 1476.673 1066.577 C 1478.435 1067.064 1479.301 1067.484 1479.963 1068.176 C 1480.695 1068.939 1480.894 1069.51 1480.894 1070.845 C 1480.894 1072.442 1480.382 1073.334 1479.085 1074 C 1478.538 1074.28 1478.09 1074.62 1478.09 1074.755 C 1478.09 1075.176 1479.159 1077.248 1480.574 1079.572 C 1482.415 1082.595 1482.663 1083.136 1482.766 1084.355 C 1482.844 1085.272 1482.792 1085.528 1482.35 1086.37 C 1481.277 1088.418 1479.323 1089.017 1477.127 1087.972 C 1476.092 1087.479 1474.461 1086.327 1472.045 1084.38 C 1470.902 1083.459 1469.602 1082.709 1468.671 1082.432 C 1468.082 1082.258 1468.028 1082.617 1468.281 1085.026 C 1468.528 1087.38 1468.408 1088.175 1467.686 1088.971 C 1466.522 1090.255 1464.449 1090.176 1463.294 1088.804 C 1462.335 1087.664 1461.986 1086.415 1461.27 1081.551 C 1460.722 1077.833 1460.277 1076.585 1459.591 1076.849 C 1459.126 1077.027 1457.658 1080.376 1456.3 1084.355 C 1454.475 1089.704 1453.989 1090.983 1453.251 1092.389 C 1451.862 1095.032 1449.947 1096.111 1448.363 1095.144 L 1448.363 1095.144 Z  M 1450.651 1091.692 C 1451.284 1090.56 1452.161 1088.321 1453.4 1084.673 C 1455.553 1078.332 1456.312 1076.643 1457.606 1075.313 C 1459.949 1072.904 1462.609 1074.315 1463.429 1078.403 C 1463.564 1079.074 1463.769 1080.333 1463.886 1081.2 C 1464.415 1085.154 1465.017 1087.371 1465.514 1087.202 C 1465.762 1087.118 1465.773 1086.417 1465.561 1084.073 C 1465.486 1083.244 1465.48 1082.276 1465.545 1081.923 C 1465.725 1080.964 1466.543 1080.134 1467.543 1079.894 C 1469.43 1079.441 1471.335 1080.362 1475.461 1083.72 C 1476.98 1084.956 1478.451 1085.844 1478.981 1085.844 C 1479.52 1085.844 1480.193 1085.146 1480.193 1084.587 C 1480.193 1084.153 1479.775 1083.348 1478.241 1080.823 C 1476.283 1077.6 1475.399 1075.65 1475.321 1074.382 C 1475.26 1073.383 1475.291 1073.279 1475.799 1072.764 C 1476.098 1072.461 1476.703 1072.107 1477.142 1071.977 C 1478.1 1071.694 1478.283 1071.502 1478.304 1070.757 C 1478.325 1069.99 1477.911 1069.692 1476.041 1069.135 C 1473.961 1068.514 1473.022 1067.992 1472.395 1067.106 C 1471.928 1066.445 1471.869 1066.222 1471.869 1065.095 C 1471.869 1064.016 1471.94 1063.722 1472.334 1063.124 C 1472.969 1062.164 1474.155 1061.454 1476.338 1060.729 C 1477.35 1060.392 1478.454 1059.998 1478.791 1059.853 C 1479.633 1059.491 1480.235 1058.812 1480.163 1058.306 C 1480.105 1057.897 1480.087 1057.894 1477.739 1057.894 C 1475.501 1057.894 1475.32 1057.868 1474.37 1057.401 C 1472.618 1056.541 1471.957 1055.374 1471.957 1053.143 C 1471.957 1051.861 1472.073 1051.216 1473.076 1046.983 C 1473.951 1043.283 1473.908 1042.296 1472.921 1043.469 C 1472.393 1044.097 1470.689 1047.531 1469.851 1049.658 C 1468.519 1053.036 1467.143 1055.591 1466.056 1056.704 C 1464.938 1057.85 1463.32 1058.145 1461.961 1057.453 C 1460.735 1056.827 1460.16 1055.573 1459.417 1051.9 C 1458.926 1049.477 1458.649 1048.777 1458.115 1048.607 C 1457.258 1048.335 1456.904 1048.736 1456.184 1050.797 C 1455.588 1052.503 1454.968 1053.304 1453.881 1053.771 C 1453.112 1054.102 1452.777 1054.149 1451.86 1054.055 C 1450.382 1053.904 1449.446 1053.472 1448.271 1052.398 C 1447.73 1051.903 1447.226 1051.498 1447.15 1051.498 C 1447.074 1051.498 1446.872 1051.626 1446.7 1051.782 C 1446.413 1052.042 1446.408 1052.12 1446.641 1052.68 C 1446.796 1053.051 1446.897 1053.868 1446.897 1054.747 C 1446.897 1056.579 1446.533 1057.484 1445.228 1058.893 C 1444.452 1059.731 1444.269 1060.045 1444.269 1060.533 C 1444.269 1061.32 1444.395 1061.316 1447.378 1060.435 C 1451.569 1059.198 1453.175 1059.587 1453.495 1061.918 C 1453.583 1062.553 1453.513 1062.883 1453.14 1063.648 C 1452.229 1065.511 1450.378 1067.219 1444.181 1071.915 C 1439.212 1075.681 1436.033 1078.387 1436.033 1078.852 C 1436.033 1079.154 1436.612 1078.896 1441.728 1076.309 C 1447.194 1073.545 1449.056 1072.846 1450.95 1072.846 C 1451.997 1072.846 1452.254 1072.911 1452.775 1073.308 C 1454.612 1074.71 1454.529 1077.147 1452.421 1083.741 C 1450.988 1088.224 1450.775 1088.915 1450.414 1090.265 C 1450.078 1091.52 1449.951 1092.503 1450.124 1092.503 C 1450.164 1092.503 1450.401 1092.138 1450.65 1091.692 L 1450.651 1091.692 Z  M 1464.618 1073.736 C 1462.775 1073.381 1461.44 1071.712 1461.447 1069.773 C 1461.462 1067.483 1463.154 1065.706 1465.345 1065.696 C 1466.1 1065.693 1466.213 1065.746 1466.526 1066.261 C 1467.077 1067.168 1466.635 1068.022 1465.506 1068.23 C 1464.612 1068.395 1464.072 1068.94 1464.072 1069.677 C 1464.072 1070.491 1464.315 1070.878 1464.973 1071.107 C 1465.428 1071.266 1465.646 1071.245 1466.159 1070.994 C 1466.662 1070.748 1466.823 1070.541 1466.963 1069.96 C 1467.2 1068.979 1467.667 1068.496 1468.379 1068.496 C 1468.79 1068.496 1469.056 1068.627 1469.316 1068.958 C 1469.751 1069.51 1469.761 1069.733 1469.409 1070.92 C 1468.791 1073.003 1466.821 1074.161 1464.619 1073.736 L 1464.618 1073.736 Z  M 1452.399 1071.373 C 1451.281 1070.822 1451.067 1069.383 1451.967 1068.482 C 1452.681 1067.768 1453.813 1067.755 1454.476 1068.452 C 1455.288 1069.306 1455.275 1070.108 1454.433 1070.949 C 1453.698 1071.684 1453.228 1071.782 1452.399 1071.373 L 1452.399 1071.373 Z  M 1457.474 1064.105 C 1455.449 1063.103 1455.105 1060.369 1456.814 1058.869 C 1457.549 1058.224 1458.022 1058.092 1459.237 1058.192 C 1460.261 1058.277 1460.907 1058.675 1461.536 1059.61 C 1462.592 1061.175 1461.86 1062.857 1460.295 1062.464 C 1459.883 1062.36 1459.863 1062.381 1460.047 1062.723 C 1460.197 1063.004 1460.193 1063.222 1460.032 1063.612 C 1459.647 1064.542 1458.719 1064.721 1457.474 1064.105 L 1457.474 1064.105 Z  M 1459.516 1061.487 C 1459.314 1060.784 1459.034 1060.574 1458.605 1060.804 C 1458.083 1061.083 1458.209 1061.654 1458.818 1061.776 C 1459.109 1061.835 1459.393 1061.956 1459.449 1062.047 C 1459.647 1062.367 1459.682 1062.069 1459.516 1061.487 L 1459.516 1061.487 Z " fill="rgb(255,255,255)"/></g></svg>