<?xml version="1.0" encoding="UTF-8" standalone="no"?><!-- Generator: Gravit.io --><svg xmlns="http://www.w3.org/2000/svg" xmlns:xlink="http://www.w3.org/1999/xlink" style="isolation:isolate" viewBox="652 388 21.406 30" width="21.406pt" height="30pt"><defs><clipPath id="_clipPath_21bbia7FwL9mfOjmsX8k9KN2eklVmCCA"><rect x="652" y="388" width="21.406" height="30"/></clipPath></defs><g clip-path="url(#_clipPath_21bbia7FwL9mfOjmsX8k9KN2eklVmCCA)"><clipPath id="_clipPath_3b4Guj3F1rDmt7Y98nG18UGGqnSC4kPy"><rect x="652" y="388" width="21.406" height="30" transform="matrix(1,0,0,1,0,0)" fill="rgb(255,255,255)"/></clipPath><g clip-path="url(#_clipPath_3b4Guj3F1rDmt7Y98nG18UGGqnSC4kPy)"><g><path d=" M 661.434 417.976 C 660.629 417.877 659.234 417.537 658.549 417.273 C 655.428 416.071 653.019 413.324 652.215 410.051 C 651.958 409.001 651.925 406.801 652.152 405.87 C 652.545 404.27 653.239 402.837 654.23 401.583 C 654.597 401.118 654.924 400.737 654.958 400.735 C 654.992 400.734 655.24 400.525 655.51 400.271 C 656.084 399.732 657.376 398.929 658.141 398.636 L 658.678 398.431 L 658.678 397.495 L 658.678 396.559 L 658.291 396.497 C 657.64 396.393 657.618 396.302 657.651 393.955 C 657.683 391.624 657.674 391.653 658.442 391.561 C 658.703 391.529 658.965 391.489 659.025 391.471 C 659.099 391.449 659.015 391.031 658.765 390.172 C 658.563 389.476 658.396 388.77 658.395 388.603 C 658.395 388.002 658.377 388.004 662.69 388.004 C 667.602 388.004 667.276 387.81 666.528 390.284 C 666.171 391.468 666.174 391.482 666.818 391.549 C 667.677 391.638 667.658 391.582 667.658 394.039 C 667.658 395.809 667.634 396.194 667.515 396.313 C 667.387 396.441 667.112 396.53 666.779 396.55 C 666.612 396.56 666.612 398.302 666.779 398.43 C 666.844 398.48 667.048 398.579 667.231 398.651 C 669.363 399.487 671.652 401.782 672.581 404.017 C 673.294 405.732 673.58 407.846 673.299 409.333 C 672.748 412.253 671.235 414.562 668.822 416.168 C 667.603 416.979 666.549 417.418 664.932 417.788 C 664.297 417.934 662.062 418.054 661.434 417.976 L 661.434 417.976 Z  M 664.712 416.375 C 667.442 415.8 669.771 414.081 670.986 411.745 C 671.754 410.268 672.038 408.978 671.936 407.438 C 671.787 405.197 670.927 403.357 669.262 401.718 C 668.395 400.864 667.584 400.336 666.366 399.833 C 665.243 399.37 665.235 399.356 665.235 397.88 C 665.235 396.769 665.219 396.65 665.051 396.56 C 664.805 396.428 660.534 396.428 660.287 396.56 C 660.12 396.65 660.104 396.77 660.104 397.931 C 660.104 399.187 660.104 399.206 659.858 399.397 C 659.723 399.503 659.273 399.721 658.858 399.881 C 657.002 400.596 655.398 402.043 654.409 403.892 C 652.725 407.039 653.159 410.747 655.524 413.424 C 657.139 415.251 658.996 416.217 661.529 416.548 C 662.112 416.624 664.024 416.52 664.712 416.375 L 664.712 416.375 Z  M 658.6 412.017 C 658.156 411.545 658.255 411.38 660.031 409.601 L 661.67 407.961 L 660.031 406.32 C 658.6 404.888 658.393 404.642 658.393 404.379 C 658.393 404.167 658.467 404.02 658.643 403.881 C 659.139 403.491 659.255 403.561 661.024 405.32 L 662.669 406.956 L 664.315 405.32 C 666.076 403.569 666.201 403.493 666.684 403.872 C 666.952 404.083 667.041 404.316 666.95 404.575 C 666.916 404.671 666.165 405.472 665.281 406.355 L 663.674 407.96 L 665.31 409.606 C 666.21 410.511 666.951 411.313 666.957 411.388 C 666.995 411.848 666.668 412.237 666.244 412.237 C 665.997 412.237 665.716 412 664.311 410.603 L 662.667 408.968 L 661.022 410.603 C 659.624 411.993 659.336 412.237 659.093 412.237 C 658.916 412.237 658.727 412.152 658.6 412.017 L 658.6 412.017 Z  M 666.261 394.228 C 666.276 393.758 666.261 393.276 666.236 393.158 L 666.182 392.943 L 662.644 392.968 L 659.106 392.993 L 659.078 393.937 C 659.064 394.456 659.07 394.937 659.1 395.007 C 659.139 395.11 659.809 395.129 662.691 395.108 L 666.233 395.084 L 666.261 394.228 Z  M 664.982 390.543 C 665.131 390.031 665.229 389.55 665.2 389.474 C 665.155 389.356 664.752 389.334 662.625 389.334 C 660.403 389.334 660.104 389.352 660.104 389.483 C 660.104 389.633 660.567 391.316 660.644 391.451 C 660.668 391.491 661.593 391.512 662.699 391.498 L 664.711 391.472 L 664.982 390.543 Z " fill="rgb(255,255,255)"/></g></g></g></svg>