<?xml version="1.0" encoding="UTF-8" standalone="no"?><!-- Generator: Gravit.io --><svg xmlns="http://www.w3.org/2000/svg" xmlns:xlink="http://www.w3.org/1999/xlink" style="isolation:isolate" viewBox="1475.733 1045.6 50 49.847" width="50pt" height="49.847pt"><defs><clipPath id="_clipPath_RK78JrEgfrFbvXjgyUc2OOikqYG5FJpI"><rect x="1475.733" y="1045.6" width="50" height="49.847"/></clipPath></defs><g clip-path="url(#_clipPath_RK78JrEgfrFbvXjgyUc2OOikqYG5FJpI)"><path d=" M 1509.289 1095.154 C 1507.882 1094.75 1506.804 1094.096 1505.771 1093.02 C 1503.622 1090.782 1502.996 1087.749 1504.109 1084.967 L 1504.525 1083.927 L 1501.203 1080.592 C 1499.031 1078.411 1497.881 1077.144 1497.881 1076.932 C 1497.881 1076.599 1498.398 1075.823 1498.807 1075.542 C 1498.933 1075.456 1499.744 1075.137 1500.61 1074.834 L 1502.183 1074.284 L 1502.746 1072.631 L 1503.31 1070.979 L 1504.411 1070.192 C 1505.017 1069.76 1505.8 1069.109 1506.151 1068.747 C 1507.356 1067.506 1507.228 1067.443 1510.868 1071.067 L 1514.078 1074.263 L 1515.303 1073.839 C 1516.706 1073.353 1518.627 1073.268 1519.989 1073.632 C 1522.687 1074.354 1524.772 1076.512 1525.51 1079.345 C 1526.393 1082.736 1524.595 1086.337 1521.163 1088.051 C 1520.431 1088.416 1519.665 1088.867 1519.462 1089.052 C 1519.258 1089.238 1518.779 1090.009 1518.398 1090.767 C 1516.555 1094.424 1512.891 1096.189 1509.289 1095.154 L 1509.289 1095.154 Z  M 1513.561 1092.588 C 1514.674 1092.065 1515.705 1090.924 1516.412 1089.435 C 1517.203 1087.766 1517.986 1086.988 1519.695 1086.172 C 1521.225 1085.441 1522.331 1084.425 1522.899 1083.228 C 1523.446 1082.073 1523.435 1080.106 1522.876 1078.907 C 1522.319 1077.71 1521.478 1076.82 1520.408 1076.295 C 1519.625 1075.911 1519.337 1075.858 1518.022 1075.858 C 1516.602 1075.858 1516.467 1075.887 1515.31 1076.465 C 1514.502 1076.868 1513.973 1077.042 1513.737 1076.981 C 1513.541 1076.931 1512.04 1075.547 1510.402 1073.906 L 1507.425 1070.921 L 1506.356 1071.658 L 1505.287 1072.395 L 1504.788 1073.89 C 1504.01 1076.221 1504.054 1076.168 1502.524 1076.666 C 1501.788 1076.906 1501.185 1077.146 1501.185 1077.2 C 1501.185 1077.253 1502.527 1078.612 1504.168 1080.219 C 1505.934 1081.95 1507.192 1083.305 1507.252 1083.544 C 1507.322 1083.824 1507.252 1084.089 1507.025 1084.408 C 1506.283 1085.45 1506.009 1086.344 1506.003 1087.737 C 1505.998 1088.879 1506.06 1089.205 1506.426 1089.96 C 1507.138 1091.431 1508.594 1092.597 1510.155 1092.947 C 1511.037 1093.145 1512.764 1092.963 1513.561 1092.588 L 1513.561 1092.588 Z  M 1491.165 1070.554 L 1487.345 1066.746 L 1486.087 1067.171 C 1483.127 1068.17 1480.12 1067.49 1477.967 1065.333 C 1475.692 1063.055 1475.09 1059.582 1476.462 1056.651 C 1477.146 1055.188 1478.585 1053.802 1480.336 1052.921 C 1481.115 1052.528 1481.909 1052.039 1482.101 1051.833 C 1482.293 1051.626 1482.733 1050.879 1483.078 1050.172 C 1484.309 1047.654 1486.343 1046.104 1488.95 1045.699 C 1491.373 1045.323 1493.544 1046.017 1495.413 1047.766 C 1497.712 1049.917 1498.449 1053.172 1497.296 1056.089 L 1496.899 1057.092 L 1500.989 1061.203 C 1503.238 1063.464 1505.123 1065.445 1505.178 1065.604 C 1505.351 1066.107 1504.824 1066.708 1503.249 1067.804 L 1501.72 1068.867 L 1501.211 1070.42 C 1500.931 1071.275 1500.561 1072.153 1500.389 1072.372 C 1500.157 1072.666 1499.551 1072.942 1498.073 1073.423 C 1496.972 1073.782 1496.004 1074.14 1495.922 1074.219 C 1495.42 1074.7 1494.997 1074.375 1491.165 1070.554 L 1491.165 1070.554 Z  M 1497.173 1071.217 C 1497.779 1071.02 1498.359 1070.792 1498.462 1070.71 C 1498.565 1070.629 1498.868 1069.906 1499.135 1069.104 C 1499.665 1067.514 1499.789 1067.344 1501.093 1066.428 C 1501.577 1066.088 1501.972 1065.728 1501.972 1065.628 C 1501.972 1065.527 1500.396 1063.889 1498.471 1061.987 C 1496.545 1060.085 1494.77 1058.292 1494.526 1058.002 C 1494.02 1057.401 1494.044 1057.061 1494.658 1056.133 C 1495.477 1054.895 1495.718 1053.232 1495.285 1051.804 C 1494.976 1050.784 1494.562 1050.144 1493.698 1049.348 C 1492.588 1048.325 1491.756 1048.009 1490.167 1048.007 C 1488.967 1048.005 1488.716 1048.06 1487.774 1048.523 C 1486.496 1049.153 1485.869 1049.851 1484.978 1051.643 C 1484.15 1053.305 1483.392 1054.057 1481.752 1054.844 C 1480.068 1055.652 1479.284 1056.361 1478.651 1057.647 C 1478.189 1058.584 1478.134 1058.839 1478.142 1059.983 C 1478.15 1061.102 1478.216 1061.4 1478.66 1062.3 C 1479.437 1063.878 1480.533 1064.73 1482.334 1065.155 C 1483.594 1065.452 1484.791 1065.25 1486.21 1064.502 C 1486.758 1064.213 1487.356 1063.977 1487.538 1063.977 C 1487.759 1063.977 1489.153 1065.254 1491.764 1067.852 C 1494.002 1070.078 1495.748 1071.695 1495.866 1071.652 C 1495.979 1071.61 1496.567 1071.414 1497.173 1071.217 L 1497.173 1071.217 Z " fill="rgb(255,255,255)"/></g></svg>