<?xml version="1.0" encoding="UTF-8" standalone="no"?><!-- Generator: Gravit.io --><svg xmlns="http://www.w3.org/2000/svg" xmlns:xlink="http://www.w3.org/1999/xlink" style="isolation:isolate" viewBox="1451.55 1052.85 50 61.518" width="50pt" height="61.518pt"><defs><clipPath id="_clipPath_D03uswdKn4TgV4eXaid4WwNtXOziuckQ"><rect x="1451.55" y="1052.85" width="50" height="61.518"/></clipPath></defs><g clip-path="url(#_clipPath_D03uswdKn4TgV4eXaid4WwNtXOziuckQ)"><path d=" M 1473.234 1113.888 C 1472.048 1113.476 1470.118 1112.348 1469.965 1111.976 C 1469.855 1111.711 1469.315 1111.798 1467.784 1112.325 C 1466.535 1112.755 1465.988 1112.829 1464.074 1112.825 C 1462.209 1112.825 1461.596 1112.74 1460.461 1112.345 C 1457.202 1111.214 1454.37 1108.776 1452.865 1105.805 C 1451.055 1102.233 1451.119 1097.275 1453.023 1093.493 C 1453.81 1091.929 1455.838 1089.679 1457.387 1088.649 C 1458.862 1087.668 1461.134 1086.879 1462.924 1086.726 C 1465.338 1086.52 1465.173 1086.644 1465.323 1084.92 C 1465.549 1082.339 1466.267 1076.867 1466.613 1075.103 C 1466.709 1074.62 1466.975 1073.214 1467.207 1071.978 C 1468.867 1063.141 1471.434 1056.183 1473.823 1054.049 C 1477.397 1050.855 1481.076 1054.125 1483.723 1062.853 C 1484.349 1064.914 1485.621 1070.199 1486.038 1072.466 C 1486.215 1073.433 1486.438 1074.62 1486.532 1075.103 C 1486.628 1075.586 1486.8 1076.729 1486.92 1077.642 C 1487.039 1078.555 1487.218 1079.829 1487.316 1080.474 C 1487.415 1081.118 1487.599 1082.723 1487.727 1084.041 C 1487.992 1086.775 1487.755 1086.521 1490.289 1086.73 C 1495.423 1087.15 1500.167 1091.448 1501.274 1096.683 C 1501.869 1099.494 1501.472 1103.449 1500.376 1105.621 C 1499.303 1107.75 1497.298 1109.915 1495.211 1111.197 C 1492.405 1112.921 1488.527 1113.351 1485.293 1112.299 C 1483.781 1111.807 1483.575 1111.781 1483.265 1112.045 C 1482.52 1112.679 1480.831 1113.579 1479.675 1113.959 C 1477.931 1114.531 1474.997 1114.499 1473.234 1113.888 L 1473.234 1113.888 Z  M 1478.818 1111.202 C 1479.813 1110.954 1480.936 1110.225 1481.997 1109.135 C 1482.647 1108.468 1482.95 1108.291 1483.364 1108.339 C 1483.737 1108.381 1483.955 1108.285 1484.094 1108.016 C 1484.269 1107.678 1484.686 1107.406 1485.751 1106.94 C 1485.912 1106.869 1486.218 1106.466 1486.431 1106.044 C 1487.288 1104.343 1486.578 1101.17 1485.373 1101.312 C 1484.766 1101.383 1484.002 1102.641 1483.997 1103.577 C 1483.997 1105.278 1482.595 1106.158 1481.516 1105.144 C 1480.661 1104.341 1481.072 1101.669 1482.299 1100.061 C 1483.875 1097.995 1486.312 1097.762 1488.059 1099.509 C 1490.464 1101.914 1490.352 1106.747 1487.839 1109.017 C 1487.423 1109.393 1487.143 1109.759 1487.215 1109.831 C 1487.512 1110.128 1490.93 1109.891 1491.959 1109.502 C 1495.187 1108.284 1497.525 1105.729 1498.365 1102.505 C 1498.725 1101.122 1498.716 1098.116 1498.337 1096.9 C 1497.269 1093.379 1494.718 1090.814 1491.31 1089.836 C 1490.385 1089.571 1489.713 1089.525 1488.087 1089.619 C 1486.958 1089.684 1485.937 1089.675 1485.819 1089.591 C 1485.371 1089.3 1485.194 1088.596 1484.975 1086.229 C 1484.2 1077.835 1482.757 1069.821 1480.945 1063.842 C 1479.659 1059.6 1477.851 1056.093 1476.816 1055.834 C 1475.751 1055.566 1474.282 1057.794 1472.815 1061.902 C 1472.098 1063.908 1470.641 1069.46 1470.146 1072.07 C 1470.025 1072.715 1469.788 1073.941 1469.621 1074.794 C 1469.454 1075.648 1469.234 1076.988 1469.132 1077.773 C 1469.03 1078.557 1468.853 1079.88 1468.737 1080.712 C 1468.621 1081.545 1468.443 1083.149 1468.341 1084.276 C 1468.24 1085.404 1468.102 1086.916 1468.037 1087.636 C 1467.856 1089.641 1467.673 1089.763 1465.083 1089.615 C 1463.411 1089.519 1462.746 1089.564 1461.815 1089.832 C 1458.461 1090.795 1455.766 1093.446 1454.879 1096.655 C 1454.441 1098.24 1454.397 1101.045 1454.786 1102.522 C 1455.849 1106.543 1459.18 1109.443 1463.333 1109.961 C 1464.25 1110.077 1466.601 1109.792 1466.601 1109.567 C 1466.601 1109.528 1466.514 1109.266 1466.407 1108.984 C 1466.142 1108.287 1466.618 1107.372 1467.337 1107.201 C 1468.524 1106.919 1469.142 1105.84 1469.137 1104.057 C 1469.137 1102.623 1468.497 1101.366 1467.775 1101.366 C 1467.124 1101.366 1466.477 1102.378 1466.306 1103.663 C 1466.078 1105.378 1464.94 1106.083 1463.84 1105.19 C 1463.434 1104.86 1463.383 1104.664 1463.409 1103.54 C 1463.497 1099.815 1466.731 1097.258 1469.424 1098.783 C 1472.172 1100.339 1472.956 1105.085 1470.969 1108.139 C 1470.63 1108.661 1470.631 1108.664 1471.398 1109.37 C 1473.626 1111.42 1475.779 1111.951 1478.807 1111.198 L 1478.818 1111.202 Z " fill="rgb(255,255,255)"/></g></svg>