<?xml version="1.0" encoding="UTF-8" standalone="no"?><!-- Generator: Gravit.io --><svg xmlns="http://www.w3.org/2000/svg" xmlns:xlink="http://www.w3.org/1999/xlink" style="isolation:isolate" viewBox="1453.425 1052.1 50 49.876" width="50pt" height="49.876pt"><defs><clipPath id="_clipPath_Fq81rvRk5jITP1Fu9gFMKgLcnUm8FkXI"><rect x="1453.425" y="1052.1" width="50" height="49.876"/></clipPath></defs><g clip-path="url(#_clipPath_Fq81rvRk5jITP1Fu9gFMKgLcnUm8FkXI)"><path d=" M 1463.974 1101.933 C 1459.155 1100.983 1455.478 1097.755 1453.872 1093.063 C 1453.48 1091.917 1453.436 1091.568 1453.426 1089.491 C 1453.417 1087.549 1453.471 1086.994 1453.774 1085.95 C 1454.157 1084.627 1454.828 1083.187 1455.6 1082.028 C 1456.265 1081.031 1481.94 1055.323 1483.108 1054.485 C 1484.339 1053.601 1485.682 1052.933 1487.163 1052.468 C 1488.182 1052.148 1488.671 1052.097 1490.65 1052.1 C 1493.355 1052.105 1494.296 1052.312 1496.446 1053.374 C 1499.51 1054.889 1501.733 1057.464 1502.938 1060.899 C 1503.385 1062.171 1503.416 1062.412 1503.424 1064.64 C 1503.432 1066.712 1503.384 1067.177 1503.06 1068.209 C 1502.604 1069.661 1501.786 1071.342 1501.059 1072.322 C 1500.269 1073.388 1474.349 1099.203 1473.501 1099.769 C 1472.435 1100.481 1471.018 1101.161 1469.77 1101.559 C 1468.897 1101.838 1468.199 1101.925 1466.515 1101.963 C 1465.336 1101.989 1464.192 1101.976 1463.974 1101.933 L 1463.974 1101.933 Z  M 1469.57 1099.142 C 1471.728 1098.333 1472.194 1097.942 1478.705 1091.476 L 1484.942 1085.283 L 1477.554 1077.9 L 1470.167 1070.517 L 1464.124 1076.55 C 1457.681 1082.983 1456.798 1084.029 1456.179 1085.965 C 1455.712 1087.424 1455.603 1089.965 1455.939 1091.549 C 1456.738 1095.314 1459.641 1098.332 1463.498 1099.407 C 1464.135 1099.584 1464.929 1099.636 1466.435 1099.597 C 1468.172 1099.552 1468.669 1099.48 1469.57 1099.142 L 1469.57 1099.142 Z  M 1493.055 1077.145 C 1499.983 1070.189 1500.2 1069.916 1500.834 1067.409 C 1501.26 1065.724 1501.191 1063.136 1500.678 1061.544 C 1499.722 1058.581 1497.252 1056.058 1494.182 1054.911 C 1493.326 1054.591 1492.729 1054.496 1491.201 1054.436 C 1488.915 1054.348 1487.882 1054.562 1485.887 1055.535 C 1484.57 1056.178 1484.381 1056.349 1478.221 1062.476 L 1471.904 1068.759 L 1479.252 1076.108 C 1483.294 1080.15 1486.638 1083.457 1486.685 1083.457 C 1486.731 1083.457 1489.598 1080.616 1493.055 1077.145 L 1493.055 1077.145 Z " fill="rgb(255,255,255)"/></g></svg>