<?xml version="1.0" encoding="UTF-8" standalone="no"?><!-- Generator: Gravit.io --><svg xmlns="http://www.w3.org/2000/svg" xmlns:xlink="http://www.w3.org/1999/xlink" style="isolation:isolate" viewBox="1478.4 1060.267 50 49.783" width="50pt" height="49.783pt"><defs><clipPath id="_clipPath_U00WdYrXjT0DRczID3HQCwbThEheoa7v"><rect x="1478.4" y="1060.267" width="50" height="49.783"/></clipPath></defs><g clip-path="url(#_clipPath_U00WdYrXjT0DRczID3HQCwbThEheoa7v)"><path d=" M 1521.105 1104.411 C 1516.11 1099.417 1515.435 1098.796 1515.191 1098.97 C 1514.358 1099.564 1514.207 1099.549 1512.532 1098.719 L 1510.938 1097.929 L 1509.85 1099.036 C 1508.337 1100.577 1507.725 1100.944 1506.686 1100.935 C 1506.092 1100.93 1505.702 1100.826 1505.335 1100.577 C 1505.052 1100.384 1500.759 1096.176 1495.797 1091.226 L 1486.774 1082.226 L 1486.067 1082.58 C 1485.132 1083.046 1483.963 1083.174 1483.017 1082.913 C 1482.439 1082.754 1482.021 1082.463 1481.216 1081.663 C 1480.077 1080.529 1479.819 1079.96 1479.824 1078.583 C 1479.828 1077.25 1480.264 1076.576 1482.697 1074.133 L 1484.929 1071.892 L 1483.053 1069.993 C 1482.021 1068.948 1481.067 1068.096 1480.932 1068.099 C 1480.797 1068.102 1480.549 1068.208 1480.381 1068.335 C 1479.872 1068.72 1479.263 1068.622 1478.808 1068.082 C 1478.584 1067.815 1478.4 1067.481 1478.4 1067.341 C 1478.4 1067.084 1484.695 1060.638 1485.236 1060.34 C 1485.647 1060.115 1486.32 1060.428 1486.66 1061.004 C 1486.928 1061.457 1486.926 1061.49 1486.579 1062.106 L 1486.223 1062.741 L 1488.185 1064.708 L 1490.146 1066.675 L 1492.357 1064.482 C 1493.573 1063.276 1494.78 1062.184 1495.04 1062.055 C 1495.301 1061.926 1495.904 1061.74 1496.381 1061.642 C 1497.657 1061.379 1498.689 1061.722 1499.818 1062.783 C 1500.942 1063.84 1501.263 1064.548 1501.267 1065.98 C 1501.27 1066.864 1501.191 1067.251 1500.893 1067.811 L 1500.515 1068.522 L 1509.422 1077.417 C 1514.32 1082.309 1518.536 1086.608 1518.79 1086.971 C 1519.154 1087.491 1519.252 1087.8 1519.252 1088.435 C 1519.252 1089.434 1519.058 1089.755 1517.492 1091.36 L 1516.259 1092.623 L 1516.962 1093.963 C 1517.759 1095.481 1517.869 1096.26 1517.352 1096.728 C 1517.031 1097.018 1517.072 1097.064 1522.714 1102.708 C 1527.854 1107.848 1528.4 1108.444 1528.4 1108.907 C 1528.4 1109.573 1527.923 1110.05 1527.256 1110.05 C 1526.792 1110.05 1526.206 1109.512 1521.105 1104.411 Z  M 1516.886 1088.443 C 1516.886 1088.308 1514.436 1085.753 1511.443 1082.763 L 1506 1077.328 L 1505.599 1077.571 C 1504.728 1078.1 1502.865 1079.946 1502.554 1080.589 C 1502.191 1081.34 1502.162 1081.676 1502.31 1083.401 C 1502.402 1084.475 1502.373 1084.669 1502.016 1085.373 C 1501.29 1086.802 1500.317 1087.691 1497.496 1089.506 C 1497.429 1089.549 1504.345 1096.433 1505.99 1097.961 L 1506.815 1098.728 L 1511.85 1093.708 C 1514.62 1090.947 1516.886 1088.578 1516.886 1088.443 L 1516.886 1088.443 Z  M 1514.544 1096.225 L 1515.133 1095.649 L 1514.813 1095.021 L 1514.493 1094.393 L 1513.639 1095.237 C 1513.169 1095.7 1512.785 1096.123 1512.785 1096.175 C 1512.785 1096.258 1513.686 1096.763 1513.882 1096.79 C 1513.922 1096.796 1514.22 1096.541 1514.544 1096.225 Z  M 1496.937 1087.091 C 1498.225 1086.315 1499.168 1085.517 1499.644 1084.797 C 1500.023 1084.224 1500.039 1084.118 1499.923 1082.963 C 1499.757 1081.301 1499.801 1080.945 1500.313 1079.834 C 1500.776 1078.829 1502.145 1077.252 1503.383 1076.296 C 1503.776 1075.992 1504.101 1075.694 1504.104 1075.634 C 1504.114 1075.453 1499.028 1070.302 1498.84 1070.302 C 1498.744 1070.302 1496.36 1072.609 1493.542 1075.428 L 1488.418 1080.554 L 1491.964 1084.103 C 1493.915 1086.055 1495.622 1087.652 1495.758 1087.652 C 1495.894 1087.652 1496.425 1087.4 1496.937 1087.091 L 1496.937 1087.091 Z  M 1485.277 1080.255 C 1485.615 1080.003 1488.784 1076.898 1492.319 1073.354 C 1496.725 1068.937 1498.788 1066.761 1498.879 1066.437 C 1499.2 1065.287 1498.187 1063.992 1496.967 1063.993 C 1496.327 1063.994 1496.221 1064.073 1494.16 1066.083 C 1492.981 1067.232 1491.828 1068.472 1491.598 1068.838 C 1491.367 1069.205 1490.958 1069.618 1490.688 1069.757 C 1490.07 1070.077 1488.186 1071.975 1487.836 1072.631 C 1487.69 1072.904 1487.335 1073.228 1487.047 1073.351 C 1486.759 1073.474 1485.547 1074.57 1484.354 1075.786 C 1482.285 1077.896 1482.185 1078.027 1482.185 1078.639 C 1482.185 1079.137 1482.299 1079.411 1482.689 1079.856 C 1483.551 1080.837 1484.332 1080.958 1485.277 1080.255 L 1485.277 1080.255 Z  M 1487.504 1069.322 C 1487.962 1068.869 1488.337 1068.424 1488.337 1068.333 C 1488.337 1068.242 1487.494 1067.327 1486.465 1066.3 C 1484.347 1064.188 1484.477 1064.221 1483.3 1065.499 L 1482.62 1066.236 L 1484.569 1068.19 C 1485.641 1069.265 1486.553 1070.144 1486.595 1070.144 C 1486.637 1070.144 1487.046 1069.774 1487.504 1069.322 Z " fill="rgb(255,255,255)"/></g></svg>