<?xml version="1.0" encoding="UTF-8" standalone="no"?><!-- Generator: Gravit.io --><svg xmlns="http://www.w3.org/2000/svg" xmlns:xlink="http://www.w3.org/1999/xlink" style="isolation:isolate" viewBox="1453.425 1057.163 31.093 50" width="31.093pt" height="50pt"><defs><clipPath id="_clipPath_j1ewPjfUhGCfPlvzZ1eEt3DhfBxnl4J5"><rect x="1453.425" y="1057.163" width="31.093" height="50"/></clipPath></defs><g clip-path="url(#_clipPath_j1ewPjfUhGCfPlvzZ1eEt3DhfBxnl4J5)"><path d=" M 1456.344 1107.019 C 1455.377 1106.677 1454.44 1105.827 1453.838 1104.746 L 1453.484 1104.111 L 1453.441 1090.172 C 1453.395 1075.019 1453.389 1075.13 1454.277 1073.378 C 1454.496 1072.945 1455.991 1070.409 1457.598 1067.743 L 1460.52 1062.896 L 1460.576 1060.948 C 1460.639 1058.754 1460.848 1058.183 1461.823 1057.525 L 1462.362 1057.163 L 1469.07 1057.207 C 1476.681 1057.258 1476.312 1057.193 1477.033 1058.605 C 1477.341 1059.208 1477.391 1059.552 1477.391 1061.091 L 1477.391 1062.878 L 1480.559 1068.135 C 1482.302 1071.026 1483.892 1073.799 1484.094 1074.296 L 1484.459 1075.201 L 1484.503 1089.33 C 1484.541 1101.686 1484.516 1103.549 1484.303 1104.174 C 1483.944 1105.229 1483.449 1105.875 1482.494 1106.537 L 1481.641 1107.129 L 1469.231 1107.158 C 1460.815 1107.178 1456.667 1107.133 1456.344 1107.019 L 1456.344 1107.019 Z  M 1481.539 1104.209 L 1482.156 1103.592 L 1482.156 1089.948 C 1482.156 1079.032 1482.113 1076.138 1481.942 1075.479 C 1481.804 1074.945 1480.646 1072.842 1478.646 1069.493 L 1475.564 1064.33 L 1468.972 1064.33 L 1462.38 1064.33 L 1459.309 1069.474 C 1457.619 1072.303 1456.135 1074.969 1456.009 1075.397 C 1455.675 1076.538 1455.751 1103.46 1456.09 1103.97 C 1456.677 1104.853 1456.128 1104.817 1469.03 1104.821 L 1480.923 1104.826 L 1481.539 1104.209 L 1481.539 1104.209 Z  M 1463.73 1096.359 C 1463.512 1096.249 1463.24 1095.965 1463.126 1095.727 C 1463.012 1095.489 1462.828 1095.295 1462.716 1095.295 C 1462.378 1095.295 1461.824 1094.585 1461.824 1094.151 C 1461.824 1093.539 1462.291 1093.074 1463.015 1092.968 C 1463.561 1092.888 1463.903 1092.625 1465.438 1091.109 L 1467.225 1089.343 L 1465.44 1087.554 C 1463.884 1085.993 1463.588 1085.764 1463.13 1085.764 C 1462.484 1085.764 1461.824 1085.162 1461.824 1084.573 C 1461.824 1084.121 1462.46 1083.382 1462.849 1083.382 C 1462.984 1083.382 1463.095 1083.25 1463.095 1083.089 C 1463.095 1082.657 1463.605 1082.27 1464.173 1082.27 C 1464.833 1082.27 1465.318 1082.798 1465.318 1083.517 C 1465.318 1084.009 1465.518 1084.272 1467.127 1085.897 L 1468.936 1087.724 L 1470.781 1085.91 C 1472.485 1084.235 1472.626 1084.051 1472.626 1083.501 C 1472.626 1082.726 1473.069 1082.27 1473.822 1082.27 C 1474.295 1082.27 1474.435 1082.357 1474.711 1082.826 C 1474.892 1083.131 1475.107 1083.382 1475.19 1083.382 C 1475.499 1083.382 1476.12 1084.177 1476.12 1084.573 C 1476.12 1085.162 1475.46 1085.764 1474.814 1085.764 C 1474.355 1085.764 1474.057 1085.996 1472.466 1087.591 L 1470.645 1089.418 L 1472.368 1091.146 C 1473.971 1092.754 1474.143 1092.881 1474.822 1092.957 C 1476.377 1093.133 1476.594 1094.828 1475.127 1095.346 C 1474.974 1095.4 1474.849 1095.542 1474.849 1095.662 C 1474.849 1096.031 1474.237 1096.46 1473.71 1096.46 C 1473.091 1096.46 1472.625 1095.934 1472.625 1095.235 C 1472.625 1094.807 1472.357 1094.467 1470.799 1092.912 L 1468.972 1091.091 L 1467.145 1092.912 C 1465.586 1094.467 1465.318 1094.807 1465.318 1095.235 C 1465.318 1096.148 1464.484 1096.738 1463.73 1096.359 L 1463.73 1096.359 Z  M 1475.008 1060.746 L 1475.008 1059.555 L 1468.972 1059.555 L 1462.936 1059.555 L 1462.936 1060.746 L 1462.936 1061.938 L 1468.972 1061.938 L 1475.008 1061.938 L 1475.008 1060.746 Z " fill="rgb(255,255,255)"/></g></svg>