<?xml version="1.0" encoding="UTF-8" standalone="no"?><!-- Generator: Gravit.io --><svg xmlns="http://www.w3.org/2000/svg" xmlns:xlink="http://www.w3.org/1999/xlink" style="isolation:isolate" viewBox="680 423 50 38.043" width="50pt" height="38.043pt"><defs><clipPath id="_clipPath_Pv53brPJIMD8Hz82tpwXuvIdJsa7s7XE"><rect x="680" y="423" width="50" height="38.043"/></clipPath></defs><g clip-path="url(#_clipPath_Pv53brPJIMD8Hz82tpwXuvIdJsa7s7XE)"><g><path d=" M 703.32 460.943 C 700.248 460.454 697.125 458.256 695.608 455.518 C 694.413 453.359 694.343 452.918 694.274 447.077 L 694.212 441.848 L 693.236 441.662 C 691.799 441.389 689.926 440.746 688.223 439.941 C 686.164 438.968 682.099 436.598 681.386 435.956 C 679.162 433.949 679.697 430.276 682.402 428.985 C 684.9 427.793 694.662 423.645 695.504 423.418 C 698.763 422.539 701.251 423.036 703.455 425.003 C 704.214 425.681 704.464 425.815 704.989 425.822 C 705.518 425.829 705.761 425.708 706.536 425.046 C 707.728 424.028 708.351 423.668 709.512 423.324 C 710.793 422.945 712.988 422.953 714.332 423.342 C 714.893 423.504 718.17 424.862 721.613 426.358 C 728.508 429.356 728.962 429.626 729.657 431.145 C 729.995 431.882 730.039 432.165 729.975 433.169 C 729.91 434.18 729.823 434.452 729.326 435.201 C 728.84 435.932 728.479 436.228 726.968 437.131 C 722.821 439.609 719.28 441.181 716.767 441.661 L 715.79 441.848 L 715.723 447.077 C 715.648 452.865 715.617 453.081 714.556 455.229 C 713.815 456.729 711.741 458.875 710.225 459.712 C 708.334 460.755 705.409 461.276 703.32 460.943 L 703.32 460.943 Z  M 707.771 458.248 C 709.632 457.603 711.541 455.908 712.463 454.083 C 713.342 452.341 713.384 451.828 713.376 442.925 L 713.37 434.81 L 709.779 434.852 L 706.188 434.895 L 706.148 444.064 C 706.112 452.09 706.076 453.268 705.861 453.505 C 705.495 453.91 704.912 453.96 704.374 453.632 L 703.896 453.341 L 703.855 444.118 L 703.814 434.895 L 700.253 434.895 L 696.691 434.895 L 696.648 442.809 C 696.62 448.039 696.664 451.083 696.78 451.784 C 697.301 454.949 699.976 457.766 703.145 458.488 C 704.445 458.785 706.535 458.676 707.771 458.248 L 707.771 458.248 Z  M 694.238 437.032 L 694.238 434.657 L 693.377 434.657 C 692.364 434.657 687.589 434.268 684.668 433.947 C 683.539 433.823 682.601 433.736 682.583 433.754 C 682.281 434.057 687.757 437.289 690.323 438.322 C 691.282 438.708 693.555 439.378 693.961 439.395 C 694.213 439.405 694.238 439.192 694.238 437.032 Z  M 717.764 439 C 718.535 438.776 719.772 438.31 720.512 437.964 C 722.115 437.214 726.411 434.804 726.316 434.709 C 726.279 434.672 725.521 434.717 724.631 434.808 C 723.741 434.899 721.382 434.974 719.389 434.974 L 715.765 434.974 L 715.765 437.19 C 715.765 439.777 715.599 439.627 717.764 439 L 717.764 439 Z  M 724.652 432.434 C 725.553 432.343 726.557 432.198 726.882 432.112 C 727.407 431.973 727.453 431.922 727.289 431.66 C 727.061 431.295 727.147 431.335 720.513 428.447 C 713.775 425.512 713.63 425.461 712.045 425.426 C 710.282 425.387 709.534 425.647 708.15 426.78 C 706.718 427.954 706.232 428.168 705.001 428.168 C 703.824 428.168 703.245 427.937 702.238 427.066 C 700.953 425.954 700.396 425.658 699.204 425.454 C 697.293 425.127 696.436 425.39 689.415 428.454 C 686.022 429.935 683.225 431.21 683.199 431.288 C 683.173 431.366 684.061 431.519 685.173 431.627 C 686.285 431.735 688.334 431.936 689.727 432.073 C 692.133 432.311 696.833 432.39 719.032 432.568 C 721.221 432.585 723.75 432.525 724.652 432.434 L 724.652 432.434 Z " fill="rgb(255,255,255)"/></g></g></svg>