<?xml version="1.0" encoding="UTF-8" standalone="no"?><!-- Generator: Gravit.io --><svg xmlns="http://www.w3.org/2000/svg" xmlns:xlink="http://www.w3.org/1999/xlink" style="isolation:isolate" viewBox="1455.112 1060.35 50 44.246" width="50pt" height="44.246pt"><defs><clipPath id="_clipPath_Gfxk1ynFBCHEdddEMFNGOWQsW8TTOTzu"><rect x="1455.112" y="1060.35" width="50" height="44.246"/></clipPath></defs><g clip-path="url(#_clipPath_Gfxk1ynFBCHEdddEMFNGOWQsW8TTOTzu)"><path d=" M 1481.461 1104.524 C 1480.279 1104.403 1478.197 1103.781 1474.155 1102.343 C 1471.844 1101.521 1469.829 1100.799 1469.676 1100.739 C 1469.434 1100.643 1469.398 1100.725 1469.398 1101.412 C 1469.398 1102.025 1469.319 1102.27 1469.031 1102.54 C 1468.666 1102.883 1468.617 1102.885 1462.233 1102.885 L 1455.803 1102.885 L 1455.458 1102.518 L 1455.112 1102.151 L 1455.112 1093.323 L 1455.112 1084.496 L 1455.531 1084.167 C 1455.938 1083.846 1456.116 1083.838 1462.259 1083.838 C 1469.738 1083.838 1469.269 1083.721 1469.398 1085.603 L 1469.478 1086.762 L 1471.462 1087.057 C 1473.475 1087.356 1475.142 1087.899 1476.331 1088.643 C 1477.056 1089.097 1476.518 1088.94 1482.956 1090.579 C 1486.026 1091.361 1488.346 1092.034 1488.581 1092.209 C 1489.262 1092.717 1489.598 1093.305 1489.677 1094.125 L 1489.752 1094.913 L 1495.17 1093.091 C 1500.126 1091.424 1500.664 1091.275 1501.477 1091.345 C 1504.241 1091.585 1505.673 1094.671 1504.091 1096.978 C 1503.362 1098.042 1503.56 1097.953 1495.747 1100.751 C 1493.87 1101.423 1491.549 1102.256 1490.588 1102.602 C 1485.49 1104.439 1483.902 1104.774 1481.461 1104.524 L 1481.461 1104.524 Z  M 1485.501 1101.819 C 1486.021 1101.688 1486.985 1101.381 1487.644 1101.136 C 1488.665 1100.757 1491.151 1099.864 1494.795 1098.566 C 1498.327 1097.308 1501.439 1096.184 1501.742 1096.057 C 1502.804 1095.61 1502.375 1093.679 1501.215 1093.679 C 1501.03 1093.679 1497.899 1094.679 1494.256 1095.901 L 1487.633 1098.123 L 1481.949 1098.123 C 1476.44 1098.123 1476.254 1098.11 1475.848 1097.794 C 1475.188 1097.275 1475.301 1096.375 1476.076 1095.975 C 1476.443 1095.785 1477.467 1095.742 1481.688 1095.742 L 1486.851 1095.742 L 1487.104 1095.356 C 1487.244 1095.143 1487.335 1094.781 1487.306 1094.551 C 1487.256 1094.142 1487.161 1094.11 1482.652 1092.973 C 1476.704 1091.473 1476.4 1091.38 1475.04 1090.646 C 1473.789 1089.972 1472.142 1089.491 1470.467 1089.312 L 1469.393 1089.197 L 1469.436 1093.682 L 1469.478 1098.167 L 1470.748 1098.621 C 1471.446 1098.87 1472.411 1099.213 1472.891 1099.381 C 1473.371 1099.55 1474.907 1100.093 1476.303 1100.588 C 1477.7 1101.083 1479.2 1101.593 1479.637 1101.723 C 1481.474 1102.267 1483.592 1102.302 1485.502 1101.82 L 1485.501 1101.819 Z  M 1467.017 1093.362 L 1467.017 1086.219 L 1462.255 1086.219 L 1457.493 1086.219 L 1457.493 1093.362 L 1457.493 1100.504 L 1462.255 1100.504 L 1467.017 1100.504 L 1467.017 1093.362 Z  M 1487.718 1089.379 C 1487.472 1089.106 1487.407 1088.736 1487.358 1087.305 C 1487.305 1085.759 1487.269 1085.578 1487.039 1085.688 C 1486.896 1085.756 1486.118 1085.837 1485.309 1085.867 C 1482.865 1085.961 1480.824 1085.154 1479.13 1083.427 C 1477.998 1082.274 1476.224 1079.404 1476.224 1078.727 C 1476.224 1078.139 1476.735 1077.647 1477.349 1077.647 C 1478.207 1077.647 1481.65 1078.299 1482.442 1078.611 C 1484.181 1079.296 1485.999 1080.913 1486.69 1082.39 C 1486.9 1082.837 1487.123 1083.203 1487.187 1083.203 C 1487.25 1083.203 1487.35 1082.364 1487.408 1081.338 C 1487.465 1080.312 1487.574 1079.116 1487.649 1078.679 C 1487.724 1078.243 1487.826 1077.65 1487.875 1077.362 L 1487.964 1076.839 L 1487.496 1077.116 C 1487.078 1077.363 1486.936 1077.37 1486.189 1077.184 C 1483.449 1076.503 1481.128 1074.421 1480.286 1071.889 C 1479.895 1070.715 1479.398 1068.29 1479.398 1067.56 C 1479.398 1066.785 1479.803 1066.325 1480.484 1066.325 C 1481.249 1066.325 1484.412 1068.229 1485.583 1069.394 C 1487.05 1070.853 1487.967 1072.828 1487.971 1074.538 C 1487.971 1076.161 1488.127 1076.163 1488.689 1074.551 C 1489.594 1071.952 1491.033 1069.482 1493.158 1066.879 C 1493.514 1066.442 1493.598 1066.175 1493.615 1065.422 C 1493.648 1063.953 1494.391 1062.529 1495.542 1061.731 C 1496.232 1061.253 1498.755 1060.35 1499.4 1060.35 C 1499.639 1060.35 1499.975 1060.517 1500.185 1060.74 C 1500.544 1061.122 1500.548 1061.163 1500.388 1062.853 C 1500.185 1065.006 1499.793 1065.981 1498.753 1066.916 C 1497.937 1067.65 1497.063 1068.04 1495.877 1068.202 C 1494.996 1068.321 1494.447 1068.857 1493.134 1070.882 C 1492.057 1072.541 1491.614 1073.431 1491 1075.172 C 1489.957 1078.13 1489.715 1080.004 1489.715 1085.123 C 1489.715 1088.868 1489.699 1089.097 1489.398 1089.397 C 1488.971 1089.824 1488.111 1089.817 1487.718 1089.382 L 1487.718 1089.379 Z  M 1484.477 1083.355 C 1484.477 1083.067 1483.008 1081.605 1482.302 1081.192 C 1481.536 1080.742 1480.073 1080.311 1479.957 1080.5 C 1479.829 1080.706 1480.899 1081.989 1481.609 1082.481 C 1482.653 1083.204 1484.477 1083.76 1484.477 1083.355 Z  M 1485.516 1073.878 C 1485.159 1072.413 1483.912 1070.718 1482.748 1070.117 C 1482.135 1069.8 1482.112 1069.95 1482.578 1071.198 C 1482.953 1072.199 1483.734 1073.244 1484.577 1073.873 C 1485.355 1074.453 1485.657 1074.454 1485.516 1073.873 L 1485.516 1073.878 Z  M 1496.726 1065.465 C 1497.243 1065.161 1497.713 1064.478 1497.873 1063.798 C 1497.958 1063.437 1497.922 1063.362 1497.667 1063.362 C 1496.975 1063.362 1495.747 1064.94 1495.975 1065.536 C 1496.078 1065.805 1496.161 1065.797 1496.726 1065.465 L 1496.726 1065.465 Z  M 1490.679 1082.15 C 1490.286 1081.649 1490.289 1081.742 1490.6 1080.22 C 1491.041 1078.052 1491.642 1076.637 1492.749 1075.155 C 1494.732 1072.5 1496.423 1071.429 1500.827 1070.036 C 1503.948 1069.049 1504.254 1069.011 1504.795 1069.552 C 1504.97 1069.727 1505.112 1070.021 1505.112 1070.206 C 1505.112 1070.84 1502.721 1076.183 1501.939 1077.298 C 1499.675 1080.521 1495.925 1082.568 1492.284 1082.568 C 1491.095 1082.568 1490.986 1082.539 1490.68 1082.15 L 1490.679 1082.15 Z  M 1494.874 1079.758 C 1496.232 1079.344 1497.683 1078.436 1498.863 1077.261 C 1499.8 1076.328 1500.135 1075.842 1500.818 1074.427 C 1501.271 1073.487 1501.619 1072.619 1501.591 1072.497 C 1501.524 1072.201 1498.759 1073.133 1497.571 1073.853 C 1496.479 1074.515 1495.16 1075.795 1494.417 1076.915 C 1493.778 1077.877 1492.989 1079.802 1493.135 1080.04 C 1493.234 1080.2 1493.638 1080.136 1494.874 1079.758 L 1494.874 1079.758 Z " fill="rgb(255,255,255)"/></g></svg>