<?xml version="1.0" encoding="UTF-8" standalone="no"?><!-- Generator: Gravit.io --><svg xmlns="http://www.w3.org/2000/svg" xmlns:xlink="http://www.w3.org/1999/xlink" style="isolation:isolate" viewBox="1500.067 1097.6 45.315 50" width="45.315pt" height="50pt"><defs><clipPath id="_clipPath_YOyxZxSquubsdkW5heYivh8OgOYXMO6D"><rect x="1500.067" y="1097.6" width="45.315" height="50"/></clipPath></defs><g clip-path="url(#_clipPath_YOyxZxSquubsdkW5heYivh8OgOYXMO6D)"><path d=" M 1520.47 1147.223 C 1518.595 1146.573 1516.585 1144.982 1515.195 1143.046 C 1514.688 1142.34 1514.67 1142.331 1513.965 1142.427 C 1511.96 1142.698 1510.213 1142.709 1509.141 1142.456 C 1506.386 1141.806 1504.07 1139.829 1503.268 1137.442 C 1502.138 1134.074 1502.833 1129.703 1505.307 1124.621 L 1506.333 1122.514 L 1505.88 1121.746 C 1505.631 1121.324 1505.281 1120.647 1505.102 1120.242 C 1504.794 1119.545 1504.741 1119.505 1504.152 1119.505 C 1502.701 1119.505 1501.101 1118.492 1500.464 1117.17 C 1499.915 1116.03 1499.937 1114.428 1500.515 1113.442 C 1500.967 1112.671 1502.126 1111.568 1502.485 1111.568 C 1502.621 1111.568 1502.694 1111.36 1502.695 1110.973 C 1502.695 1110.07 1503.13 1108.176 1503.551 1107.242 C 1505.186 1103.625 1508.531 1102.128 1513.655 1102.72 L 1514.695 1102.841 L 1515.45 1101.812 C 1517.447 1099.093 1520.066 1097.6 1522.841 1097.6 C 1525.598 1097.6 1528.046 1098.968 1530.126 1101.673 L 1531.028 1102.845 L 1532.139 1102.722 C 1533.841 1102.535 1536.07 1102.623 1537.093 1102.918 C 1540.136 1103.797 1542.165 1106.059 1542.777 1109.254 C 1543.075 1110.815 1543.073 1111.764 1542.766 1113.553 C 1542.317 1116.168 1541.306 1119.021 1539.954 1121.485 L 1539.347 1122.592 L 1540.125 1124.104 C 1540.553 1124.936 1541.062 1126.022 1541.257 1126.517 C 1541.586 1127.355 1541.654 1127.426 1542.226 1127.522 C 1542.875 1127.632 1543.918 1128.302 1544.537 1129.007 C 1545.325 1129.904 1545.619 1131.77 1545.171 1133.025 C 1544.888 1133.817 1544.102 1134.778 1543.448 1135.13 C 1542.974 1135.386 1542.884 1135.539 1542.709 1136.392 C 1542.263 1138.563 1540.621 1140.756 1538.738 1141.697 C 1537.192 1142.469 1535.666 1142.741 1533.5 1142.629 C 1532.49 1142.577 1531.52 1142.492 1531.346 1142.441 C 1531.092 1142.367 1530.867 1142.562 1530.234 1143.403 C 1528.858 1145.234 1526.997 1146.641 1525.12 1147.27 C 1523.757 1147.727 1521.867 1147.708 1520.47 1147.223 L 1520.47 1147.223 Z  M 1525.234 1144.669 C 1526.1 1144.226 1528.409 1142.152 1528.409 1141.817 C 1528.409 1141.721 1527.855 1141.435 1527.179 1141.181 C 1526.502 1140.927 1525.234 1140.354 1524.361 1139.906 L 1522.774 1139.093 L 1521.822 1139.611 C 1520.882 1140.123 1518.191 1141.29 1517.496 1141.488 C 1517.3 1141.544 1517.139 1141.652 1517.139 1141.728 C 1517.139 1141.996 1519.162 1143.912 1519.905 1144.348 C 1521.166 1145.087 1521.716 1145.229 1523.091 1145.17 C 1524.1 1145.126 1524.541 1145.023 1525.234 1144.669 Z  M 1536.958 1139.912 C 1538.404 1139.398 1539.589 1138.203 1540.155 1136.692 C 1540.336 1136.209 1540.463 1135.8 1540.438 1135.784 C 1540.414 1135.768 1540.072 1135.654 1539.679 1135.532 C 1539.201 1135.383 1538.671 1135.018 1538.077 1134.429 C 1537.356 1133.714 1537.151 1133.39 1536.986 1132.704 C 1536.53 1130.802 1537.237 1128.975 1538.841 1127.913 L 1539.195 1127.68 L 1538.723 1126.575 C 1537.995 1124.867 1538.009 1124.868 1536.808 1126.458 L 1535.763 1127.842 L 1535.493 1129.715 C 1535.028 1132.953 1533.879 1136.827 1532.674 1139.224 L 1532.217 1140.134 L 1532.575 1140.214 C 1533.71 1140.469 1535.797 1140.325 1536.958 1139.912 L 1536.958 1139.912 Z  M 1513.273 1140.091 C 1513.313 1140.051 1513.031 1139.277 1512.647 1138.373 C 1511.371 1135.372 1510.505 1132.275 1510.147 1129.431 C 1509.955 1127.906 1509.953 1127.901 1508.927 1126.522 C 1508.362 1125.762 1507.845 1125.119 1507.778 1125.094 C 1507.71 1125.068 1507.361 1125.718 1507.002 1126.538 C 1503.865 1133.691 1504.751 1138.758 1509.365 1140.055 C 1510.167 1140.281 1513.057 1140.307 1513.273 1140.091 L 1513.273 1140.091 Z  M 1530.371 1138.592 C 1531.035 1137.269 1531.923 1134.897 1532.346 1133.315 C 1532.975 1130.962 1533.037 1131.018 1531.477 1132.527 C 1529.915 1134.037 1528.125 1135.537 1526.366 1136.808 L 1525.195 1137.654 L 1525.969 1138.054 C 1526.547 1138.353 1528.649 1139.23 1529.796 1139.65 C 1529.817 1139.658 1530.076 1139.182 1530.371 1138.592 L 1530.371 1138.592 Z  M 1517.695 1138.905 C 1518.306 1138.671 1519.188 1138.296 1519.656 1138.072 L 1520.506 1137.664 L 1518.941 1136.497 C 1517.002 1135.049 1515.677 1133.928 1514.067 1132.375 C 1513.335 1131.668 1512.857 1131.303 1512.908 1131.489 C 1512.957 1131.664 1513.144 1132.396 1513.325 1133.116 C 1513.747 1134.797 1514.311 1136.372 1515.121 1138.127 C 1515.858 1139.724 1515.691 1139.674 1517.695 1138.905 L 1517.695 1138.905 Z  M 1524.293 1135.362 C 1526.343 1133.955 1528.421 1132.191 1530.551 1130.049 C 1533.54 1127.045 1533.471 1127.172 1533.592 1124.494 C 1533.646 1123.278 1533.638 1121.37 1533.574 1120.255 L 1533.456 1118.228 L 1531.901 1116.525 C 1529.132 1113.492 1523.722 1109.028 1522.817 1109.029 C 1522.577 1109.029 1521.217 1109.954 1519.361 1111.38 C 1518.002 1112.424 1512.976 1117.327 1512.481 1118.091 C 1512.14 1118.618 1511.965 1122.058 1512.133 1124.945 L 1512.251 1126.972 L 1513.805 1128.675 C 1516.086 1131.173 1518.993 1133.698 1521.742 1135.569 C 1522.222 1135.896 1522.728 1136.165 1522.865 1136.168 C 1523.002 1136.17 1523.645 1135.808 1524.293 1135.362 L 1524.293 1135.362 Z  M 1521.603 1129.649 C 1520.281 1129.421 1518.811 1128.637 1517.798 1127.621 C 1514.995 1124.809 1514.995 1120.392 1517.798 1117.579 C 1520.605 1114.762 1525.102 1114.762 1527.909 1117.579 C 1532.206 1121.891 1529.501 1129.184 1523.409 1129.713 C 1522.885 1129.759 1522.072 1129.73 1521.603 1129.649 L 1521.603 1129.649 Z  M 1525.027 1126.796 C 1528.511 1125.107 1528.474 1120.094 1524.965 1118.367 C 1524.101 1117.941 1523.736 1117.852 1522.853 1117.852 C 1520.217 1117.852 1518.091 1119.971 1518.091 1122.6 C 1518.091 1124.227 1518.974 1125.839 1520.288 1126.608 C 1521.898 1127.552 1523.35 1127.61 1525.027 1126.796 L 1525.027 1126.796 Z  M 1542.52 1132.754 C 1543.589 1131.536 1542.861 1129.838 1541.266 1129.828 C 1540.262 1129.822 1539.583 1130.271 1539.363 1131.087 C 1539.025 1132.344 1539.851 1133.296 1541.289 1133.308 C 1541.939 1133.314 1542.086 1133.248 1542.52 1132.754 L 1542.52 1132.754 Z  M 1509.679 1122.565 C 1509.679 1121.829 1509.674 1121.822 1509.421 1122.183 C 1509.204 1122.493 1509.196 1122.609 1509.369 1122.932 C 1509.481 1123.142 1509.597 1123.315 1509.626 1123.315 C 1509.655 1123.315 1509.679 1122.977 1509.679 1122.565 Z  M 1536.499 1122.61 C 1536.496 1122.517 1536.389 1122.303 1536.261 1122.133 C 1536.046 1121.849 1536.028 1121.886 1536.033 1122.61 C 1536.038 1123.334 1536.056 1123.37 1536.271 1123.086 C 1536.399 1122.916 1536.502 1122.702 1536.499 1122.61 Z  M 1509.133 1118.473 C 1509.924 1117.417 1509.974 1117.292 1510.149 1115.934 C 1510.551 1112.807 1511.566 1109.173 1512.776 1106.526 C 1513.106 1105.804 1513.336 1105.172 1513.286 1105.123 C 1513.236 1105.073 1512.636 1104.995 1511.953 1104.95 C 1510.489 1104.854 1508.844 1105.186 1507.827 1105.782 C 1506.486 1106.567 1505.342 1108.464 1505.148 1110.222 L 1505.043 1111.176 L 1505.734 1111.362 C 1506.516 1111.572 1507.589 1112.422 1508.086 1113.226 C 1508.552 1113.98 1508.797 1115.478 1508.584 1116.269 C 1508.444 1116.788 1507.836 1117.855 1507.238 1118.631 C 1507.152 1118.741 1507.231 1119.112 1507.44 1119.585 L 1507.782 1120.358 L 1508.042 1119.971 C 1508.184 1119.758 1508.675 1119.084 1509.133 1118.473 L 1509.133 1118.473 Z  M 1538.649 1118.83 C 1540.41 1114.994 1540.999 1111.113 1540.186 1108.707 C 1539.52 1106.737 1537.95 1105.437 1535.779 1105.057 C 1534.672 1104.864 1532.651 1104.892 1532.439 1105.104 C 1532.379 1105.164 1532.584 1105.768 1532.894 1106.446 C 1534.124 1109.139 1535.009 1112.212 1535.535 1115.616 L 1535.805 1117.362 L 1536.829 1118.75 C 1537.393 1119.513 1537.897 1120.139 1537.95 1120.139 C 1538.004 1120.139 1538.318 1119.551 1538.649 1118.83 L 1538.649 1118.83 Z  M 1505.232 1116.887 C 1505.875 1116.555 1506.186 1116.045 1506.186 1115.327 C 1506.186 1114.838 1506.075 1114.6 1505.647 1114.172 C 1505.178 1113.703 1505.004 1113.632 1504.319 1113.632 C 1503.35 1113.632 1502.778 1114.031 1502.521 1114.887 C 1502.064 1116.413 1503.748 1117.655 1505.232 1116.887 L 1505.232 1116.887 Z  M 1517.156 1110.099 C 1517.734 1109.629 1518.68 1108.897 1519.26 1108.471 C 1519.839 1108.046 1520.314 1107.65 1520.314 1107.592 C 1520.314 1107.366 1515.926 1105.568 1515.782 1105.735 C 1515.593 1105.955 1514.68 1107.994 1514.226 1109.209 C 1513.712 1110.588 1512.853 1113.576 1512.853 1113.989 C 1512.853 1114.079 1513.585 1113.433 1514.48 1112.553 C 1515.375 1111.673 1516.579 1110.568 1517.156 1110.099 L 1517.156 1110.099 Z  M 1532.386 1112.115 C 1531.89 1110.238 1531.072 1107.991 1530.387 1106.628 C 1530.151 1106.159 1529.939 1105.753 1529.916 1105.727 C 1529.766 1105.556 1525.393 1107.359 1525.393 1107.592 C 1525.393 1107.648 1526.016 1108.155 1526.777 1108.718 C 1528.406 1109.924 1531.052 1112.179 1532.05 1113.213 C 1532.437 1113.614 1532.775 1113.922 1532.799 1113.898 C 1532.824 1113.873 1532.638 1113.071 1532.386 1112.115 Z  M 1524.43 1105.241 C 1525.265 1104.817 1526.484 1104.268 1527.139 1104.022 C 1527.794 1103.776 1528.393 1103.521 1528.47 1103.455 C 1528.71 1103.25 1526.324 1101.048 1525.307 1100.537 C 1524.455 1100.108 1524.213 1100.061 1522.853 1100.061 C 1521.494 1100.061 1521.252 1100.108 1520.398 1100.537 C 1519.398 1101.039 1517.003 1103.259 1517.243 1103.46 C 1517.317 1103.522 1518.056 1103.838 1518.885 1104.162 C 1519.714 1104.487 1520.893 1105.027 1521.504 1105.363 C 1522.115 1105.699 1522.682 1105.983 1522.763 1105.993 C 1522.844 1106.004 1523.594 1105.665 1524.43 1105.241 L 1524.43 1105.241 Z " fill="rgb(255,255,255)"/></g></svg>