<?xml version="1.0" encoding="UTF-8" standalone="no"?><!-- Generator: Gravit.io --><svg xmlns="http://www.w3.org/2000/svg" xmlns:xlink="http://www.w3.org/1999/xlink" style="isolation:isolate" viewBox="1446.487 1054.913 50 54.339" width="50pt" height="54.339pt"><defs><clipPath id="_clipPath_W5WA6etFTaIqmVKTn4pXWtfSEbuFcPCj"><rect x="1446.487" y="1054.913" width="50" height="54.339"/></clipPath></defs><g clip-path="url(#_clipPath_W5WA6etFTaIqmVKTn4pXWtfSEbuFcPCj)"><path d=" M 1485.507 1108.935 C 1482.531 1108.166 1481.693 1107.385 1476.714 1100.749 C 1474.651 1098.001 1471.679 1094.057 1470.109 1091.985 C 1463.584 1083.379 1459.231 1077.622 1456.699 1074.251 C 1455.222 1072.284 1453.908 1070.675 1453.778 1070.675 C 1453.65 1070.675 1452.828 1071.212 1451.954 1071.869 C 1451.079 1072.525 1450.154 1073.114 1449.898 1073.178 C 1448.97 1073.408 1448.153 1071.943 1448.77 1071.155 C 1449.008 1070.851 1469.671 1055.312 1470.249 1055.003 C 1471.017 1054.592 1472.17 1055.668 1471.931 1056.573 C 1471.867 1056.817 1471.113 1057.508 1470.01 1058.335 C 1468.216 1059.68 1468.198 1059.7 1468.462 1060.104 C 1468.609 1060.328 1470.414 1062.741 1472.472 1065.466 C 1474.531 1068.19 1477.825 1072.552 1479.791 1075.158 C 1481.758 1077.764 1484.397 1081.253 1485.656 1082.912 C 1490.851 1089.758 1494.857 1095.105 1495.297 1095.781 C 1496.404 1097.485 1496.799 1100.344 1496.226 1102.499 C 1495.366 1105.726 1492.222 1108.477 1488.697 1109.085 C 1487.26 1109.333 1486.997 1109.32 1485.507 1108.935 L 1485.507 1108.935 Z  M 1490.328 1105.842 C 1491.459 1105.192 1492.903 1103.807 1493.334 1102.961 C 1493.891 1101.866 1494.095 1100.036 1493.791 1098.866 C 1493.649 1098.322 1493.445 1097.709 1493.337 1097.504 C 1493.158 1097.166 1487.888 1090.105 1483.731 1084.635 C 1482.831 1083.45 1481.01 1081.046 1479.684 1079.292 C 1469.169 1065.382 1466.083 1061.357 1465.967 1061.403 C 1465.893 1061.431 1463.618 1063.119 1460.912 1065.153 C 1456.561 1068.425 1456.012 1068.89 1456.166 1069.178 C 1456.434 1069.679 1458.22 1071.961 1458.394 1072.025 C 1458.479 1072.056 1459.5 1071.376 1460.661 1070.514 C 1461.822 1069.651 1462.953 1068.898 1463.173 1068.84 C 1463.706 1068.701 1464.274 1068.978 1464.563 1069.519 C 1464.997 1070.331 1464.71 1070.722 1462.435 1072.427 C 1461.253 1073.312 1460.248 1074.13 1460.201 1074.246 C 1460.107 1074.478 1462.615 1077.914 1462.879 1077.914 C 1462.971 1077.914 1463.865 1077.28 1464.868 1076.506 C 1467.278 1074.645 1467.752 1074.404 1468.372 1074.724 C 1468.631 1074.858 1468.94 1075.203 1469.059 1075.492 C 1469.362 1076.224 1469.107 1076.553 1467.053 1078.089 C 1466.121 1078.786 1465.149 1079.545 1464.894 1079.777 L 1464.431 1080.199 L 1465.71 1081.888 C 1466.414 1082.817 1467.066 1083.625 1467.159 1083.682 C 1467.253 1083.74 1468.204 1083.136 1469.273 1082.341 C 1472.12 1080.223 1472.076 1080.248 1472.669 1080.493 C 1473.236 1080.728 1473.632 1081.505 1473.484 1082.094 C 1473.422 1082.342 1472.543 1083.123 1471.128 1084.187 C 1469.797 1085.189 1468.905 1085.974 1468.954 1086.103 C 1469.057 1086.371 1471.317 1089.333 1471.535 1089.485 C 1471.622 1089.545 1472.35 1089.119 1473.151 1088.537 C 1476.678 1085.977 1476.452 1086.112 1476.937 1086.285 C 1477.184 1086.373 1477.54 1086.651 1477.728 1086.904 C 1478.326 1087.707 1478.064 1088.082 1475.614 1089.93 C 1474.385 1090.857 1473.377 1091.702 1473.375 1091.809 C 1473.373 1091.915 1474.508 1093.505 1475.898 1095.342 C 1477.287 1097.179 1479.46 1100.053 1480.728 1101.729 C 1481.996 1103.406 1483.283 1104.988 1483.588 1105.247 C 1485.337 1106.724 1488.334 1106.989 1490.328 1105.842 L 1490.328 1105.842 Z  M 1448.812 1090.563 C 1447.514 1089.856 1446.491 1088.284 1446.487 1086.988 C 1446.487 1085.947 1449.093 1079.809 1449.775 1079.249 C 1450.284 1078.833 1450.926 1078.872 1451.348 1079.346 C 1451.746 1079.793 1453.949 1084.631 1454.319 1085.871 C 1454.803 1087.494 1454.175 1089.205 1452.715 1090.23 C 1452.068 1090.685 1451.804 1090.758 1450.651 1090.798 C 1449.686 1090.831 1449.19 1090.768 1448.812 1090.563 L 1448.812 1090.563 Z  M 1451.484 1087.91 C 1451.695 1087.7 1451.829 1087.335 1451.829 1086.976 C 1451.829 1086.301 1450.635 1083.519 1450.433 1083.724 C 1450.359 1083.798 1450.018 1084.516 1449.676 1085.319 C 1449.025 1086.841 1449 1087.351 1449.543 1087.953 C 1449.925 1088.377 1451.042 1088.353 1451.485 1087.91 L 1451.484 1087.91 Z " fill="rgb(255,255,255)"/></g></svg>