<?xml version="1.0" encoding="UTF-8" standalone="no"?><!-- Generator: Gravit.io --><svg xmlns="http://www.w3.org/2000/svg" xmlns:xlink="http://www.w3.org/1999/xlink" style="isolation:isolate" viewBox="1444.05 1060.725 50 31.218" width="50pt" height="31.218pt"><defs><clipPath id="_clipPath_hBOfw6ClZgUn1rBLgn6EUzHUMnQvsopM"><rect x="1444.05" y="1060.725" width="50" height="31.218"/></clipPath></defs><g clip-path="url(#_clipPath_hBOfw6ClZgUn1rBLgn6EUzHUMnQvsopM)"><path d=" M 1444.05 1085.726 L 1444.05 1079.52 L 1464.824 1079.52 L 1485.598 1079.52 L 1485.598 1085.726 L 1485.598 1091.932 L 1464.824 1091.932 L 1444.05 1091.932 L 1444.05 1085.726 Z  M 1456.597 1085.683 L 1456.645 1083.657 L 1452.416 1083.657 L 1448.187 1083.657 L 1448.187 1085.611 C 1448.187 1086.686 1448.24 1087.618 1448.306 1087.683 C 1448.371 1087.748 1450.252 1087.78 1452.486 1087.755 L 1456.549 1087.709 L 1456.597 1085.683 Z  M 1481.461 1085.726 L 1481.461 1083.657 L 1471.117 1083.657 L 1460.773 1083.657 L 1460.773 1085.726 L 1460.773 1087.795 L 1471.117 1087.795 L 1481.461 1087.795 L 1481.461 1085.726 Z  M 1489.908 1085.731 L 1489.908 1079.519 L 1491.979 1079.519 L 1494.05 1079.519 L 1494.005 1085.683 L 1493.959 1091.846 L 1491.934 1091.894 L 1489.908 1091.943 L 1489.908 1085.731 Z  M 1489.821 1074.735 C 1489.771 1074.475 1489.512 1073.835 1489.247 1073.313 C 1488.875 1072.581 1488.563 1072.243 1487.876 1071.829 C 1486.865 1071.219 1486.063 1071.072 1483.746 1071.072 C 1480.681 1071.072 1478.437 1070.138 1476.263 1067.958 C 1474.726 1066.417 1473.885 1064.859 1473.457 1062.761 C 1473.008 1060.561 1472.86 1060.728 1475.254 1060.728 C 1476.392 1060.728 1477.323 1060.752 1477.323 1060.782 C 1477.323 1060.812 1477.407 1061.294 1477.511 1061.853 C 1477.77 1063.256 1478.339 1064.295 1479.38 1065.269 C 1480.786 1066.583 1481.45 1066.799 1484.584 1066.954 C 1487.43 1067.095 1488.503 1067.344 1489.967 1068.202 C 1491.035 1068.828 1492.375 1070.249 1492.996 1071.415 C 1493.461 1072.286 1494.032 1074.24 1494.043 1074.994 C 1494.043 1075.154 1493.519 1075.209 1491.98 1075.209 L 1489.915 1075.209 L 1489.821 1074.735 Z " fill="rgb(255,255,255)"/></g></svg>