<?xml version="1.0" encoding="UTF-8" standalone="no"?><!-- Generator: Gravit.io --><svg xmlns="http://www.w3.org/2000/svg" xmlns:xlink="http://www.w3.org/1999/xlink" style="isolation:isolate" viewBox="1481.067 1108.933 47.444 50" width="47.444pt" height="50pt"><defs><clipPath id="_clipPath_alU1eZiqbG3hES5qrvOFhO4CqDr29c0v"><rect x="1481.067" y="1108.933" width="47.444" height="50"/></clipPath></defs><g clip-path="url(#_clipPath_alU1eZiqbG3hES5qrvOFhO4CqDr29c0v)"><path d=" M 1486.913 1158.663 C 1484.211 1157.936 1481.86 1155.442 1481.201 1152.603 C 1480.932 1151.442 1481.081 1149.424 1481.524 1148.234 C 1482.014 1146.918 1481.996 1146.943 1489.185 1137.238 C 1490.7 1135.193 1492.836 1132.309 1493.931 1130.83 L 1495.924 1128.14 L 1495.881 1126.966 L 1495.839 1125.792 L 1495.131 1125.621 C 1494.052 1125.361 1494.024 1125.244 1494.022 1120.844 C 1494.019 1117.221 1494.036 1117.007 1494.347 1116.611 C 1494.66 1116.214 1494.745 1116.194 1496.154 1116.194 C 1497.11 1116.194 1497.653 1116.131 1497.692 1116.016 C 1497.724 1115.918 1497.445 1114.619 1497.072 1113.129 C 1496.698 1111.639 1496.393 1110.268 1496.393 1110.081 C 1496.393 1109.895 1496.529 1109.574 1496.695 1109.369 L 1496.997 1108.995 L 1504.334 1108.948 C 1512.359 1108.897 1512.787 1108.935 1513.065 1109.727 C 1513.204 1110.121 1512.947 1111.486 1512.117 1114.764 C 1511.741 1116.249 1511.693 1116.194 1513.371 1116.194 C 1515.602 1116.194 1515.45 1115.877 1515.5 1120.651 C 1515.547 1125.249 1515.523 1125.364 1514.467 1125.599 L 1513.797 1125.748 L 1513.797 1127.041 L 1513.797 1128.333 L 1517.053 1132.746 C 1518.844 1135.173 1521.044 1138.155 1521.943 1139.374 C 1522.841 1140.592 1524.401 1142.692 1525.41 1144.041 C 1526.419 1145.39 1527.452 1146.926 1527.707 1147.455 C 1529.195 1150.552 1528.584 1154.103 1526.141 1156.543 C 1524.988 1157.695 1523.954 1158.311 1522.573 1158.671 C 1521.211 1159.026 1488.235 1159.018 1486.913 1158.663 L 1486.913 1158.663 Z  M 1522.91 1156.036 C 1524.034 1155.443 1525.055 1154.398 1525.593 1153.289 C 1525.995 1152.461 1526.05 1152.174 1526.049 1150.904 C 1526.049 1149.579 1526.006 1149.378 1525.529 1148.468 C 1525.243 1147.923 1524.81 1147.22 1524.567 1146.906 C 1524.323 1146.592 1523.073 1144.911 1521.788 1143.171 C 1520.503 1141.43 1519.434 1139.985 1519.412 1139.96 C 1519.39 1139.934 1519.061 1140.123 1518.68 1140.38 C 1516.678 1141.731 1511.606 1142.437 1505.253 1142.25 C 1500.666 1142.115 1496.129 1141.401 1492.096 1140.178 L 1490.354 1139.65 L 1489.465 1140.857 C 1488.977 1141.52 1487.66 1143.3 1486.54 1144.811 C 1485.421 1146.323 1484.278 1147.991 1484.001 1148.52 C 1483.536 1149.408 1483.499 1149.589 1483.518 1150.922 C 1483.535 1152.146 1483.605 1152.505 1483.979 1153.297 C 1484.443 1154.278 1485.498 1155.43 1486.328 1155.863 C 1487.616 1156.534 1487.325 1156.524 1505.095 1156.492 L 1522.104 1156.461 L 1522.91 1156.036 Z  M 1513.56 1139.549 C 1515.51 1139.256 1517.135 1138.765 1517.503 1138.358 C 1517.83 1137.997 1517.74 1137.583 1517.236 1137.126 C 1516.013 1136.021 1511.727 1136.07 1506.314 1137.252 C 1504.122 1137.73 1499.942 1139.005 1499.669 1139.278 C 1499.592 1139.354 1500.215 1139.492 1501.087 1139.592 C 1501.943 1139.689 1502.892 1139.798 1503.196 1139.834 C 1504.487 1139.984 1512.049 1139.777 1513.56 1139.549 Z  M 1496.368 1138.365 C 1499.193 1136.374 1507.021 1134.3 1513.053 1133.946 L 1514.919 1133.836 L 1513.211 1131.542 L 1511.503 1129.247 L 1511.424 1127.507 L 1511.345 1125.767 L 1504.778 1125.767 L 1498.212 1125.767 L 1498.133 1127.507 L 1498.054 1129.247 L 1497.114 1130.513 C 1492.115 1137.242 1491.899 1137.543 1492.014 1137.658 C 1492.131 1137.776 1495.292 1138.636 1495.656 1138.65 C 1495.817 1138.657 1496.137 1138.528 1496.368 1138.365 L 1496.368 1138.365 Z  M 1512.991 1123.095 C 1513.114 1122.947 1513.159 1122.185 1513.129 1120.761 L 1513.085 1118.647 L 1504.778 1118.647 L 1496.472 1118.647 L 1496.427 1120.775 C 1496.403 1121.945 1496.419 1122.995 1496.462 1123.108 C 1496.583 1123.423 1512.73 1123.41 1512.991 1123.095 L 1512.991 1123.095 Z  M 1509.38 1115.878 C 1509.45 1115.747 1509.72 1114.716 1509.98 1113.586 C 1510.332 1112.058 1510.405 1111.502 1510.266 1111.413 C 1510.163 1111.348 1507.674 1111.293 1504.734 1111.292 C 1500.097 1111.29 1499.377 1111.321 1499.297 1111.53 C 1499.212 1111.751 1499.903 1115.016 1500.209 1115.841 L 1500.342 1116.199 L 1504.798 1116.157 C 1508.567 1116.122 1509.273 1116.079 1509.38 1115.878 L 1509.38 1115.878 Z " fill="rgb(255,255,255)"/></g></svg>