<svg id="Layer_1" data-name="Layer 1" xmlns="http://www.w3.org/2000/svg" viewBox="0 0 48 48"><defs><style>.cls-1{fill:none;stroke:#000;stroke-linecap:round;stroke-linejoin:round;stroke-width:2px;}</style></defs><title>banana_3</title><path class="cls-1" d="M33.18,20C33.12,12.74,29.28,9.13,28,6a3.37,3.37,0,0,0-1.39-1.36A4,4,0,0,0,24.73,4a1.05,1.05,0,0,0-1.05,1.24A41,41,0,0,1,24,17.39v0c-.14,1.41-.34,2.95-.62,4.59-.06.38-.15.76-.24,1.13C20.24,34.38,4,40,4,40l1,4L9.1,42s16.16,2.94,21.41-10a38.63,38.63,0,0,0,2.17-7"/><path class="cls-1" d="M25,23s10-1,19,12c0,0,1.33-14-10.84-15C33.16,20,31,22,25,23Z"/><path class="cls-1" d="M25,23s-13,0-15,4c0,0-5-10.23,14-9.61A6.48,6.48,0,0,0,25,23Z"/><path class="cls-1" d="M32.58,15.42S37,12,41,13c0,0-3.91-6-10.45-2.48"/><rect class="cls-1" x="-491" y="-423" width="690" height="690"/></svg>