<?xml version="1.0" encoding="UTF-8" standalone="no"?><!-- Generator: Gravit.io --><svg xmlns="http://www.w3.org/2000/svg" xmlns:xlink="http://www.w3.org/1999/xlink" style="isolation:isolate" viewBox="1989.638 1574.663 50 45.833" width="50pt" height="45.833pt"><defs><clipPath id="_clipPath_IPtyasYDSmx3LMFiIXetE9Q5UgdJXA7G"><rect x="1989.638" y="1574.663" width="50" height="45.833"/></clipPath></defs><g clip-path="url(#_clipPath_IPtyasYDSmx3LMFiIXetE9Q5UgdJXA7G)"><path d=" M 2027.138 1582.996 C 2024.853 1582.996 2022.729 1583.636 2020.888 1584.711 L 2020.888 1583.5 C 2020.888 1581.274 2021.754 1579.183 2023.329 1577.608 L 2020.383 1574.663 C 2018.121 1576.925 2016.721 1580.05 2016.721 1583.501 L 2016.721 1584.711 C 2014.88 1583.637 2012.753 1582.996 2010.467 1582.996 C 2006.772 1582.996 2003.458 1584.612 2001.169 1587.163 L 1995.888 1587.163 L 1995.888 1587.165 C 1992.437 1587.165 1989.638 1589.963 1989.638 1593.413 L 1989.638 1593.413 L 1989.638 1605.914 C 1989.638 1609.368 1992.437 1612.164 1995.888 1612.164 L 2002.168 1612.164 C 2005.971 1617.214 2011.997 1620.496 2018.804 1620.496 C 2030.309 1620.495 2039.638 1611.168 2039.638 1599.663 L 2039.638 1595.496 C 2039.638 1588.593 2034.041 1582.996 2027.138 1582.996 Z  M 1995.888 1591.331 L 1995.888 1591.329 L 1998.693 1591.329 C 1998.231 1592.634 1997.967 1594.033 1997.967 1595.496 L 1997.967 1595.498 L 1995.888 1595.498 C 1994.736 1595.498 1993.804 1594.564 1993.804 1593.414 C 1993.804 1592.264 1994.736 1591.331 1995.888 1591.331 Z  M 2002.138 1607.998 L 2002.138 1603.831 L 1997.971 1603.831 L 1997.971 1607.998 L 1995.888 1607.998 C 1994.736 1607.998 1993.804 1607.066 1993.804 1605.914 L 1993.8 1605.913 L 1993.804 1605.913 L 1993.804 1599.282 C 1994.459 1599.514 1995.153 1599.664 1995.888 1599.664 L 2014.638 1599.664 L 2014.638 1607.998 L 2010.471 1607.998 L 2010.471 1603.831 L 2006.304 1603.831 L 2006.304 1607.998 L 2002.138 1607.998 Z  M 2035.471 1599.663 C 2035.471 1608.852 2027.994 1616.329 2018.804 1616.329 C 2014.595 1616.329 2010.756 1614.748 2007.82 1612.164 L 2018.804 1612.164 L 2018.804 1595.498 L 2002.133 1595.498 L 2002.133 1595.491 C 2002.133 1590.901 2005.873 1587.162 2010.467 1587.162 C 2012.513 1587.162 2014.483 1587.921 2016.019 1589.298 L 2018.8 1591.794 L 2021.585 1589.298 C 2023.121 1587.921 2025.093 1587.162 2027.138 1587.162 C 2031.734 1587.162 2035.471 1590.899 2035.471 1595.495 L 2035.471 1599.663 Z " fill="rgb(255,255,255)"/></g></svg>