<?xml version="1.0" encoding="UTF-8" standalone="no"?><!-- Generator: Gravit.io --><svg xmlns="http://www.w3.org/2000/svg" xmlns:xlink="http://www.w3.org/1999/xlink" style="isolation:isolate" viewBox="1834.8 1590.4 50 50" width="50pt" height="50pt"><defs><clipPath id="_clipPath_a6LCibemR0peUXT1ktp2WLk9RhSgNv79"><rect x="1834.8" y="1590.4" width="50" height="50"/></clipPath></defs><g clip-path="url(#_clipPath_a6LCibemR0peUXT1ktp2WLk9RhSgNv79)"><g><g><path d=" M 1845.217 1627.9 C 1842.342 1627.9 1840.008 1625.098 1840.008 1621.65 C 1839.908 1620.24 1840.425 1618.856 1841.424 1617.857 C 1842.423 1616.858 1843.807 1616.341 1845.217 1616.442 C 1846.626 1616.341 1848.01 1616.858 1849.009 1617.857 C 1850.009 1618.856 1850.525 1620.24 1850.425 1621.65 C 1850.425 1625.098 1848.092 1627.9 1845.217 1627.9 Z  M 1845.217 1618.525 C 1844.363 1618.431 1843.512 1618.73 1842.905 1619.338 C 1842.297 1619.945 1841.998 1620.796 1842.092 1621.65 C 1842.092 1623.952 1843.498 1625.817 1845.217 1625.817 C 1846.935 1625.817 1848.342 1623.952 1848.342 1621.65 C 1848.435 1620.796 1848.136 1619.945 1847.529 1619.338 C 1846.921 1618.73 1846.071 1618.431 1845.217 1618.525 Z " fill="rgb(255,255,255)"/><path d=" M 1836.883 1640.4 L 1834.8 1640.4 L 1834.8 1631.629 C 1834.784 1628.962 1836.785 1626.714 1839.435 1626.421 L 1845.102 1625.817 L 1845.331 1627.9 L 1839.665 1628.535 C 1838.074 1628.711 1836.874 1630.06 1836.883 1631.66 L 1836.883 1640.4 Z " fill="rgb(255,255,255)"/><rect x="1838.967" y="1632.067" width="2.083" height="8.333" transform="matrix(1,0,0,1,0,0)" fill="rgb(255,255,255)"/><path d=" M 1855.633 1640.4 L 1853.55 1640.4 L 1853.55 1631.629 C 1853.56 1630.029 1852.359 1628.68 1850.769 1628.504 L 1845.102 1627.9 L 1845.331 1625.817 L 1850.998 1626.442 C 1853.649 1626.735 1855.65 1628.983 1855.633 1631.65 L 1855.633 1640.4 Z " fill="rgb(255,255,255)"/><rect x="1849.383" y="1632.067" width="2.083" height="8.333" transform="matrix(1,0,0,1,0,0)" fill="rgb(255,255,255)"/><path d=" M 1874.383 1627.9 C 1871.508 1627.9 1869.175 1625.098 1869.175 1621.65 C 1869.075 1620.24 1869.591 1618.856 1870.591 1617.857 C 1871.59 1616.858 1872.974 1616.341 1874.383 1616.442 C 1875.793 1616.341 1877.177 1616.858 1878.176 1617.857 C 1879.175 1618.856 1879.692 1620.24 1879.592 1621.65 C 1879.592 1625.098 1877.258 1627.9 1874.383 1627.9 Z  M 1874.383 1618.525 C 1873.529 1618.431 1872.679 1618.73 1872.071 1619.338 C 1871.464 1619.945 1871.165 1620.796 1871.258 1621.65 C 1871.258 1623.952 1872.665 1625.817 1874.383 1625.817 C 1876.102 1625.817 1877.508 1623.952 1877.508 1621.65 C 1877.602 1620.796 1877.303 1619.945 1876.695 1619.338 C 1876.088 1618.73 1875.237 1618.431 1874.383 1618.525 Z " fill="rgb(255,255,255)"/><path d=" M 1866.05 1640.4 L 1863.967 1640.4 L 1863.967 1631.629 C 1863.95 1628.962 1865.951 1626.714 1868.602 1626.421 L 1874.269 1625.796 L 1874.498 1627.879 L 1868.831 1628.514 C 1867.241 1628.69 1866.04 1630.039 1866.05 1631.639 L 1866.05 1640.4 Z " fill="rgb(255,255,255)"/><rect x="1868.133" y="1632.067" width="2.083" height="8.333" transform="matrix(1,0,0,1,0,0)" fill="rgb(255,255,255)"/><path d=" M 1884.8 1640.4 L 1882.717 1640.4 L 1882.717 1631.629 C 1882.726 1630.029 1881.526 1628.68 1879.935 1628.504 L 1874.269 1627.9 L 1874.498 1625.817 L 1880.165 1626.442 C 1882.815 1626.735 1884.816 1628.983 1884.8 1631.65 L 1884.8 1640.4 Z " fill="rgb(255,255,255)"/><rect x="1878.55" y="1632.067" width="2.083" height="8.333" transform="matrix(1,0,0,1,0,0)" fill="rgb(255,255,255)"/><path d=" M 1867.092 1618.525 C 1866.724 1618.525 1866.383 1618.331 1866.196 1618.014 L 1863.373 1613.317 L 1856.227 1613.317 L 1853.404 1618.014 C 1853.217 1618.331 1852.876 1618.525 1852.508 1618.525 C 1852.141 1618.525 1851.8 1618.331 1851.613 1618.014 L 1848.79 1613.317 L 1843.133 1613.317 C 1842.558 1613.317 1842.092 1612.85 1842.092 1612.275 L 1842.092 1591.442 C 1842.092 1590.866 1842.558 1590.4 1843.133 1590.4 L 1876.467 1590.4 C 1877.042 1590.4 1877.508 1590.866 1877.508 1591.442 L 1877.508 1612.275 C 1877.508 1612.85 1877.042 1613.317 1876.467 1613.317 L 1870.81 1613.317 L 1867.987 1618.014 C 1867.8 1618.331 1867.459 1618.525 1867.092 1618.525 Z  M 1855.633 1611.233 L 1863.967 1611.233 C 1864.334 1611.233 1864.675 1611.427 1864.862 1611.744 L 1867.092 1615.462 L 1869.321 1611.744 C 1869.508 1611.427 1869.849 1611.233 1870.217 1611.233 L 1875.425 1611.233 L 1875.425 1592.483 L 1844.175 1592.483 L 1844.175 1611.233 L 1849.383 1611.233 C 1849.751 1611.233 1850.092 1611.427 1850.279 1611.744 L 1852.508 1615.462 L 1854.738 1611.744 C 1854.925 1611.427 1855.266 1611.233 1855.633 1611.233 Z " fill="rgb(255,255,255)"/><path d=" M 1850.508 1608.515 L 1847.383 1601.223 C 1847.229 1600.873 1847.279 1600.466 1847.514 1600.163 C 1847.749 1599.861 1848.131 1599.712 1848.508 1599.775 L 1852.883 1600.504 L 1850.508 1594.973 L 1852.425 1594.16 L 1855.55 1601.452 C 1855.705 1601.802 1855.655 1602.209 1855.42 1602.512 C 1855.185 1602.814 1854.803 1602.963 1854.425 1602.9 L 1850.05 1602.171 L 1852.425 1607.712 L 1850.508 1608.515 Z " fill="rgb(255,255,255)"/><rect x="1866.05" y="1600.817" width="6.25" height="2.083" transform="matrix(1,0,0,1,0,0)" fill="rgb(255,255,255)"/><rect x="1858.758" y="1600.817" width="5.208" height="2.083" transform="matrix(1,0,0,1,0,0)" fill="rgb(255,255,255)"/><rect x="1868.133" y="1595.608" width="4.167" height="2.083" transform="matrix(1,0,0,1,0,0)" fill="rgb(255,255,255)"/><rect x="1858.758" y="1595.608" width="7.292" height="2.083" transform="matrix(1,0,0,1,0,0)" fill="rgb(255,255,255)"/><rect x="1858.758" y="1606.025" width="9.375" height="2.083" transform="matrix(1,0,0,1,0,0)" fill="rgb(255,255,255)"/></g></g></g></svg>