<?xml version="1.0" encoding="UTF-8" standalone="no"?><!-- Generator: Gravit.io --><svg xmlns="http://www.w3.org/2000/svg" xmlns:xlink="http://www.w3.org/1999/xlink" style="isolation:isolate" viewBox="1900.8 1586.4 50 66.667" width="50pt" height="66.667pt"><defs><clipPath id="_clipPath_QY4vZDFj0mqwkrqJXKx0xT8pbsf5YHto"><rect x="1900.8" y="1586.4" width="50" height="66.667"/></clipPath></defs><g clip-path="url(#_clipPath_QY4vZDFj0mqwkrqJXKx0xT8pbsf5YHto)"><g><g><path d=" M 1925.8 1615.567 C 1917.759 1615.567 1911.217 1609.024 1911.217 1600.983 C 1911.217 1592.943 1917.759 1586.4 1925.8 1586.4 C 1933.841 1586.4 1940.383 1592.943 1940.383 1600.983 C 1940.383 1609.024 1933.841 1615.567 1925.8 1615.567 Z  M 1925.8 1590.567 C 1920.057 1590.567 1915.383 1595.24 1915.383 1600.983 C 1915.383 1606.727 1920.057 1611.4 1925.8 1611.4 C 1931.543 1611.4 1936.217 1606.727 1936.217 1600.983 C 1936.217 1595.24 1931.543 1590.567 1925.8 1590.567 Z " fill="rgb(255,255,255)"/></g><g><path d=" M 1948.717 1653.067 C 1947.566 1653.067 1946.633 1652.135 1946.633 1650.983 L 1946.633 1638.243 C 1946.633 1630.268 1940.145 1623.78 1932.17 1623.78 L 1919.43 1623.78 C 1911.455 1623.78 1904.967 1630.268 1904.967 1638.243 L 1904.967 1650.983 C 1904.967 1652.135 1904.034 1653.067 1902.883 1653.067 C 1901.733 1653.067 1900.8 1652.135 1900.8 1650.983 L 1900.8 1638.243 C 1900.8 1627.971 1909.158 1619.613 1919.43 1619.613 L 1932.17 1619.613 C 1942.442 1619.613 1950.8 1627.971 1950.8 1638.243 L 1950.8 1650.983 C 1950.8 1652.135 1949.867 1653.067 1948.717 1653.067 Z " fill="rgb(255,255,255)"/></g></g></g></svg>