<?xml version="1.0" encoding="UTF-8" standalone="no"?><!-- Generator: Gravit.io --><svg xmlns="http://www.w3.org/2000/svg" xmlns:xlink="http://www.w3.org/1999/xlink" style="isolation:isolate" viewBox="695 415 50 50" width="50pt" height="50pt"><defs><clipPath id="_clipPath_wcmbus8IyMMShkvIAxZJkcM1lwieM5Dj"><rect x="695" y="415" width="50" height="50"/></clipPath></defs><g clip-path="url(#_clipPath_wcmbus8IyMMShkvIAxZJkcM1lwieM5Dj)"><g><path d=" M 730.417 415 C 726.966 415 724.167 417.798 724.167 421.25 C 724.167 424.701 726.966 427.5 730.417 427.5 C 733.868 427.5 736.667 424.701 736.667 421.25 C 736.667 417.798 733.868 415 730.417 415 Z  M 730.417 423.333 C 729.265 423.333 728.333 422.399 728.333 421.25 C 728.333 420.099 729.265 419.167 730.417 419.167 C 731.568 419.167 732.5 420.099 732.5 421.25 C 732.5 422.399 731.568 423.333 730.417 423.333 Z " fill="rgb(255,255,255)"/><path d=" M 703.333 421.25 C 703.333 424.701 706.133 427.5 709.583 427.5 C 713.034 427.5 715.833 424.701 715.833 421.25 C 715.833 417.798 713.034 415 709.583 415 C 706.133 415 703.333 417.798 703.333 421.25 Z  M 707.5 421.25 C 707.5 420.099 708.432 419.167 709.583 419.167 C 710.734 419.167 711.666 420.099 711.666 421.25 C 711.666 422.399 710.734 423.333 709.583 423.333 C 708.432 423.333 707.5 422.399 707.5 421.25 Z " fill="rgb(255,255,255)"/><path d=" M 745 429.226 L 745 419.167 L 740.833 419.167 L 740.833 427.5 L 736.667 431.667 L 724.167 431.667 L 721.247 436.776 L 716.139 431.668 L 716.139 431.667 L 703.333 431.667 L 698.727 422.455 L 695 424.318 L 701.9 438.118 L 699.166 450.418 L 699.166 465 L 703.333 465 L 703.333 450.417 L 707.5 450.417 L 711.668 454.583 L 711.668 465 L 715.834 465 L 715.834 452.858 L 712.23 449.253 L 715.068 436.487 L 719.104 440.524 L 715.833 446.25 L 719.451 448.318 L 724.167 440.066 L 724.167 465 L 728.333 465 L 728.333 450.417 L 732.5 450.417 L 736.667 454.583 L 736.667 465 L 740.833 465 L 740.833 452.858 L 736.667 448.691 L 736.667 437.558 L 745 429.226 Z  M 708.629 446.25 L 704.361 446.25 L 706.676 435.833 L 710.945 435.833 L 708.629 446.25 Z  M 732.5 446.25 L 728.333 446.25 L 728.333 435.833 L 732.5 435.833 L 732.5 446.25 Z " fill="rgb(255,255,255)"/></g></g></svg>