<?xml version="1.0" encoding="UTF-8" standalone="no"?><!-- Generator: Gravit.io --><svg xmlns="http://www.w3.org/2000/svg" xmlns:xlink="http://www.w3.org/1999/xlink" style="isolation:isolate" viewBox="1952.8 1554.4 50 44.134" width="50pt" height="44.134pt"><defs><clipPath id="_clipPath_inaRCybnZfry7KeEgy8Z1TiAdeJks75t"><rect x="1952.8" y="1554.4" width="50" height="44.134"/></clipPath></defs><g clip-path="url(#_clipPath_inaRCybnZfry7KeEgy8Z1TiAdeJks75t)"><g><g><g><g><path d=" M 1962.715 1574.804 L 1961.153 1574.804 L 1961.153 1568.225 C 1960.926 1566.952 1960.028 1565.622 1958.78 1565.622 L 1957.677 1565.63 L 1957.607 1564.069 C 1957.672 1564.063 1957.719 1564.06 1957.77 1564.06 L 1958.78 1564.059 C 1960.934 1564.06 1962.385 1566.059 1962.705 1568.034 L 1962.715 1568.159 L 1962.715 1574.804 Z " fill="rgb(255,255,255)"/></g><g><path d=" M 1973.373 1589.089 L 1971.811 1589.089 L 1971.811 1584.89 L 1971.466 1579.496 L 1964.392 1572.382 C 1964.184 1572.581 1963.994 1572.763 1963.994 1572.763 C 1963.201 1573.516 1962.847 1575.073 1963.486 1575.941 L 1967.97 1580.45 L 1966.863 1581.552 L 1962.471 1577.158 C 1962.42 1577.102 1962.37 1577.045 1962.322 1576.987 L 1959.795 1574.445 L 1957.099 1571.581 L 1957.099 1564.691 C 1956.872 1563.42 1955.975 1562.09 1954.726 1562.089 L 1954.378 1562.089 L 1954.494 1573.067 L 1963.377 1588.059 L 1962.033 1588.855 L 1952.937 1573.502 L 1952.8 1560.584 L 1953.54 1560.538 C 1953.614 1560.531 1953.664 1560.528 1953.716 1560.528 L 1954.726 1560.527 C 1956.881 1560.528 1958.332 1562.527 1958.652 1564.5 L 1958.662 1564.625 L 1958.662 1570.962 L 1960.918 1573.359 L 1961.652 1574.096 C 1961.807 1573.154 1962.264 1572.252 1962.916 1571.632 C 1963.855 1570.736 1963.88 1570.714 1963.901 1570.696 L 1964.452 1570.227 L 1972.988 1578.81 L 1973.373 1584.866 L 1973.373 1589.089 Z " fill="rgb(255,255,255)"/></g><g><path d=" M 1976.588 1598.534 L 1975.026 1598.534 L 1975.026 1589.679 L 1960.863 1589.679 L 1960.863 1598.534 L 1959.301 1598.534 L 1959.301 1588.117 L 1976.588 1588.117 L 1976.588 1598.534 Z " fill="rgb(255,255,255)"/></g></g><g><g><path d=" M 1994.456 1574.804 L 1992.894 1574.804 L 1992.904 1568.035 C 1993.223 1566.06 1994.672 1564.061 1996.827 1564.06 L 1997.839 1564.06 C 1997.888 1564.06 1997.936 1564.063 1997.983 1564.068 L 1997.931 1565.63 L 1997.845 1565.624 L 1996.827 1565.622 C 1995.579 1565.623 1994.682 1566.953 1994.456 1568.225 L 1994.456 1574.804 L 1994.456 1574.804 Z " fill="rgb(255,255,255)"/></g><g><path d=" M 1983.796 1589.089 L 1982.234 1589.089 L 1982.236 1584.816 L 1982.621 1578.811 L 1991.156 1570.228 L 1991.707 1570.697 C 1991.741 1570.727 1991.764 1570.746 1992.683 1571.693 C 1993.323 1572.3 1993.772 1573.191 1993.929 1574.125 L 1994.705 1573.344 L 1996.946 1570.963 L 1996.956 1564.502 C 1997.275 1562.527 1998.725 1560.529 2000.88 1560.528 L 2001.892 1560.529 C 2001.943 1560.529 2001.994 1560.532 2002.044 1560.536 L 2002.784 1560.584 L 2002.8 1561.325 L 2002.671 1573.502 L 1993.574 1588.855 L 1992.23 1588.059 L 2001.113 1573.067 L 2001.229 1562.09 L 2000.88 1562.089 C 1999.632 1562.09 1998.735 1563.419 1998.509 1564.691 L 1998.509 1571.581 L 1995.829 1574.43 L 1993.298 1576.974 C 1993.243 1577.045 1993.185 1577.113 1993.123 1577.179 L 1988.715 1581.591 L 1987.55 1580.554 L 1987.639 1580.45 L 1992.123 1575.94 C 1992.723 1575.082 1992.369 1573.548 1991.584 1572.803 C 1991.574 1572.792 1991.394 1572.607 1991.196 1572.403 L 1984.142 1579.496 L 1983.796 1584.891 L 1983.796 1589.089 L 1983.796 1589.089 Z " fill="rgb(255,255,255)"/></g><g><path d=" M 1996.307 1598.534 L 1994.745 1598.534 L 1994.745 1589.679 L 1980.58 1589.679 L 1980.58 1598.534 L 1979.018 1598.534 L 1979.018 1588.117 L 1996.307 1588.117 L 1996.307 1598.534 Z " fill="rgb(255,255,255)"/></g></g></g><g><g><g><g><path d=" M 1977.94 1576.874 L 1967.734 1566.609 C 1964.983 1563.843 1964.983 1559.341 1967.735 1556.575 L 1967.828 1556.481 C 1969.162 1555.139 1970.936 1554.4 1972.823 1554.4 C 1974.711 1554.4 1976.485 1555.139 1977.82 1556.481 L 1977.94 1556.602 L 1978.059 1556.482 C 1979.395 1555.139 1981.169 1554.4 1983.056 1554.4 C 1984.944 1554.4 1986.718 1555.139 1988.052 1556.481 L 1988.145 1556.576 C 1990.896 1559.342 1990.895 1563.843 1988.145 1566.61 L 1977.94 1576.874 Z  M 1972.823 1555.962 C 1971.355 1555.962 1969.975 1556.538 1968.936 1557.582 L 1968.843 1557.676 C 1966.695 1559.836 1966.695 1563.349 1968.843 1565.508 L 1977.941 1574.658 L 1987.037 1565.508 C 1989.184 1563.349 1989.184 1559.836 1987.038 1557.676 L 1986.944 1557.582 C 1985.906 1556.538 1984.525 1555.963 1983.057 1555.963 C 1981.588 1555.963 1980.207 1556.538 1979.168 1557.582 L 1977.941 1558.818 L 1976.713 1557.582 C 1975.673 1556.538 1974.292 1555.962 1972.823 1555.962 Z " fill="rgb(255,255,255)"/></g></g></g></g></g></g></svg>